<svg width="201" height="80" viewBox="0 0 201 80" fill="none" xmlns="http://www.w3.org/2000/svg">
<g clip-path="url(#clip0_319_256)">
<path d="M140.909 23.9284C141.044 23.9585 143.459 25.4071 146.287 27.1517L151.396 30.3148L154.385 29.4362L157.351 28.5645L157.27 28.2867C157.226 28.1372 156.591 26.4905 155.88 24.5874C154.585 21.2085 154.572 21.1658 154.706 20.8481C154.778 20.6645 154.965 20.4469 155.098 20.3847C155.547 20.1135 160.542 18.6919 160.904 18.7247C161.137 18.7488 161.64 19.0885 162.702 19.96C163.503 20.6296 164.207 21.142 164.254 21.1284C164.3 21.1148 164.867 20.9018 165.48 20.6752C166.527 20.2978 166.666 20.2569 167.169 20.3411C168.327 20.5114 169.249 21.6792 169.667 23.529C169.801 24.0699 169.882 24.603 169.86 24.7021C169.841 24.8934 170.05 24.8321 173.271 23.8854C175.75 23.1567 177.083 22.8112 178.042 22.6455C183.345 21.7598 186.877 22.2998 188.819 24.2818C189.861 25.3447 190.925 27.6778 190.914 28.8412C190.88 30.2669 189.861 31.4251 187.71 32.4984C186.395 33.1634 184.421 33.8133 177.932 35.7203C174.155 36.8305 171.056 37.7645 171.063 37.7858C171.069 37.8072 171.224 37.9936 171.409 38.1945C172.567 39.4787 173.365 42.1917 173.09 43.8273C172.971 44.5353 172.521 45.3173 172.005 45.7012C171.655 45.9665 171.36 46.0764 170.321 46.312C165.936 47.3225 163.031 46.9463 161.699 45.1562C161.609 45.0203 161.202 45.3488 158.752 47.4614C157.086 48.9026 155.808 49.9512 155.623 50.0057C155.113 50.1555 148.613 50.3951 148.325 50.2709C147.984 50.139 147.766 49.739 147.817 49.3991C147.848 49.2505 148.838 47.8223 150.035 46.2406L152.224 43.323L151.259 43.4673C150.73 43.5531 149.998 43.6292 149.595 43.6314C148.052 43.6905 145.933 43.2459 145.123 42.718L144.774 42.4725L143.074 43.97C142.129 44.7814 141.259 45.5015 141.143 45.5356C140.818 45.6309 137.056 45.7622 136.862 45.703C136.61 45.6148 136.332 45.1857 136.343 44.8808C136.34 44.6962 137.03 43.7043 138.452 41.7777C139.626 40.2028 140.658 38.832 140.772 38.7057L140.953 38.4666L136.914 32.9469C134.688 29.9113 132.837 27.2989 132.787 27.128C132.737 26.9571 132.754 26.6735 132.832 26.5113L132.972 26.215L136.812 25.0631C139.285 24.3129 140.751 23.9052 140.909 23.9284ZM135.258 27.3995C135.271 27.4423 137.042 29.8692 139.184 32.7902C142.538 37.3509 143.068 38.1236 143.05 38.4072C143.037 38.6199 142.404 39.5487 141.083 41.3062L139.15 43.8935L139.826 43.8805L140.478 43.8743L142.361 42.2301C143.409 41.3419 144.367 40.5732 144.506 40.5323C144.691 40.4778 145.114 40.632 145.997 41.0685C148.065 42.1085 149.646 42.1775 152.846 41.3299C154.597 40.8618 154.788 40.8287 155.077 40.9528C155.306 41.0479 155.426 41.1983 155.501 41.4547C155.633 41.9033 155.717 41.7624 152.843 45.601C151.669 47.1759 150.741 48.47 150.77 48.4846C150.8 48.4991 151.772 48.4685 152.943 48.4261L155.057 48.3385L158.343 45.4698C160.146 43.8956 161.744 42.5671 161.883 42.5262C162.532 42.3355 163.011 42.682 163.102 43.421C163.256 44.629 164.533 45.2052 166.862 45.0777C167.829 45.0256 169.553 44.7275 170.48 44.4551C171.037 44.2916 171.077 44.2566 171.174 43.9031C171.509 42.3889 170.46 39.3322 169.515 39.0298C169.433 39.0075 168.871 39.1496 168.274 39.348C167.261 39.6691 167.139 39.6817 166.851 39.5576C166.497 39.383 166.281 38.8198 166.438 38.4954C166.505 38.3827 166.91 37.962 167.368 37.549L168.186 36.8211L175.045 34.8051C184.592 31.999 187.097 31.1003 188.276 30.0576C188.957 29.4629 189.084 29.1239 188.921 28.3131C188.844 27.9645 188.72 27.6295 188.655 27.579C188.567 27.5354 187.646 27.8292 185.478 28.6753C182.078 29.9532 182.177 29.9473 181.095 29.5226C180.302 29.2219 179.829 28.6415 179.534 27.6374C179.245 26.6548 179.295 26.2226 179.767 25.9446C179.933 25.826 180.968 25.4059 182.021 25.0499C183.068 24.6725 184.016 24.301 184.103 24.2524C184.465 24.0298 182.219 23.9242 180.41 24.1078C177.647 24.3861 177.131 24.5145 163.622 28.4853L150.993 32.1972L150.202 31.7334C149.777 31.4869 147.438 30.0393 144.982 28.5334L140.546 25.7758L137.881 26.559C136.421 26.9881 135.246 27.3568 135.258 27.3995ZM156.822 21.7113C156.812 21.7608 157.306 23.1007 157.922 24.6834C158.539 26.266 159.075 27.6632 159.113 27.7914L159.182 28.0264L163.538 26.746L167.895 25.4655L167.965 25.1897C168.056 24.8148 167.441 22.7213 167.123 22.3272C166.896 22.069 166.844 22.0612 166.38 22.1974C166.125 22.2724 165.489 22.5058 164.981 22.7479C164.334 23.0308 163.964 23.1398 163.776 23.102C163.618 23.0788 163.099 22.7674 162.653 22.3646C162.184 21.9686 161.491 21.4067 161.123 21.0971L160.465 20.5711L158.68 21.0955C157.661 21.3952 156.833 21.6618 156.822 21.7113ZM183.684 26.2551L181.348 27.1276L181.459 27.4198C181.509 27.5907 181.717 27.7848 181.894 27.8721L182.241 28.0254L184.936 27.0013C186.404 26.4304 187.647 25.949 187.658 25.8995C187.675 25.8713 187.536 25.6567 187.328 25.4626C186.87 25.0171 187.131 24.9636 183.684 26.2551Z" fill="white"/>
<path d="M175.884 27.2946C176.382 27.4497 176.887 27.8816 177.006 28.2875C177.295 29.2702 176.449 30.3311 175.377 30.3677C174.032 30.415 173.253 29.1355 173.958 28.0231C174.252 27.5655 174.361 27.5101 174.871 27.3603C175.305 27.2095 175.579 27.1987 175.884 27.2946Z" fill="white"/>
<path d="M169.306 29.0659C169.586 29.0764 170.086 29.3238 170.36 29.5684C171.169 30.3516 170.686 31.7931 169.504 32.1405C167.905 32.6104 166.744 30.8863 167.826 29.6863C168.105 29.3491 168.844 29.0389 169.306 29.0659Z" fill="white"/>
<path d="M163.289 30.9502C163.863 31.1062 164.215 31.444 164.378 31.9994C164.93 33.8792 162.13 34.8879 161.213 33.1383C160.989 32.717 161.146 31.8817 161.528 31.4678C161.922 31.0966 162.773 30.8232 163.289 30.9502Z" fill="white"/>
<path d="M157.039 32.8104C157.578 32.9306 158.162 33.5479 158.207 34.0451C158.337 35.5154 156.533 36.4865 155.407 35.5646C154.742 35.0172 154.691 33.9878 155.278 33.3281C155.613 32.9278 156.477 32.6971 157.039 32.8104Z" fill="white"/>
<path d="M136.262 27.622C136.652 27.8624 136.937 28.3063 137.286 28.6082C137.962 29.191 138.645 29.7814 139.122 30.5423C139.882 31.755 140.678 32.8299 141.276 34.1554C141.87 35.4732 142.029 37.0666 142.907 38.2592C143.067 38.4768 143.738 38.9391 143.433 39.2234" stroke="white" stroke-width="3" stroke-linecap="round"/>
<path d="M140.712 43.1772C141.905 42.2674 144.743 40.9681 144.702 39.093C144.684 38.3031 144.274 37.528 143.996 36.8066C143.466 35.4306 142.955 34.0391 142.301 32.7148C141.653 31.4022 140.822 30.3261 139.794 29.3202C139.314 28.851 138.633 28.1387 138.515 27.445C138.437 26.9863 141.356 28.0521 141.654 28.2207C142.131 28.4896 142.45 28.9324 142.877 29.2631C143.577 29.8039 144.323 30.2718 145.024 30.8093C146.352 31.8285 147.904 32.5527 149.393 33.2927C150.07 33.6289 150.724 33.884 151.467 34.0444C151.838 34.1243 152.203 34.1344 152.579 34.1559C152.617 34.1581 151.907 34.0513 151.771 34.0226C150.479 33.749 149.065 33.4818 148.123 32.4798C147.842 32.1805 146.9 31.3783 147.07 32.2905C147.153 32.7379 147.467 34.0184 147.968 34.2237C148.038 34.2524 147.643 33.8373 147.613 33.816C147.142 33.4906 146.516 33.2621 145.942 33.4307C144.649 33.8107 145.86 36.2829 146.493 36.7735C147.82 37.8002 148.377 36.2387 147.843 35.1502C147.463 34.3756 145.583 33.7773 145.44 35.0476C145.367 35.7003 146.575 36.6165 146.569 35.8616C146.559 34.5773 145.477 32.8947 144.347 32.336C143.483 31.9093 143.462 32.5911 144.006 32.598C144.528 32.6046 143.921 31.6407 143.669 31.5444C142.961 31.2738 144.508 33.6315 144.622 33.7782C145.552 34.9734 146.418 36.174 146.851 37.6457C146.923 37.8895 146.777 38.2027 146.967 38.2453C147.512 38.3679 147.389 38.9599 147.839 39.357C147.916 39.4249 148.551 39.6467 148.465 39.4899C148.326 39.2389 147.295 38.8811 147.037 38.8985C146.336 38.9457 147.315 39.7641 147.481 39.8802C148.457 40.5627 149.541 40.557 150.75 40.6851C151.93 40.8101 152.746 40.3949 153.892 40.1595C154.549 40.0244 157.67 39.4923 157.22 40.7516C157.035 41.27 156.899 41.7741 156.532 42.194C156.23 42.539 156.08 43.0774 155.713 43.3514C154.977 43.9001 154.179 44.567 153.382 45.007C152.853 45.2992 152.586 45.6012 152.775 46.2436C153.008 47.0354 153.685 47.0378 154.448 46.9584C155.705 46.8275 156.965 46.0006 157.795 45.0713C158.375 44.4233 159.099 44.4592 159.779 43.9761C160.864 43.2046 160.411 41.7977 159.281 41.3658C158.416 41.0349 158.256 42.0382 158.101 42.6493C157.951 43.2444 158.595 41.8091 158.387 41.6959C157.755 41.3507 155.854 43.5223 155.464 43.8827C154.866 44.4362 153.652 45.0879 153.326 45.8725C153.205 46.1642 152.832 46.2506 152.651 46.5563C152.502 46.8081 152.326 47.0339 152.239 47.3109" stroke="white" stroke-width="3" stroke-linecap="round"/>
<path d="M149.995 38.0225C149.621 37.7893 150.219 37.5618 150.408 37.4562C152.296 36.402 154.179 35.3404 156.084 34.3186C156.227 34.2421 156.742 34.0643 156.874 33.9111C157.141 33.6016 156.058 33.9613 155.655 34.0269C154.044 34.2893 152.426 34.5 150.816 34.7617C150.668 34.7858 149.141 34.9107 148.987 35.1913C148.873 35.4008 149.466 35.2239 149.703 35.1965C151.018 35.0451 152.314 34.6735 153.593 34.3499C154.838 34.0347 158.556 33.0171 157.307 33.3189C154.662 33.958 151.982 34.5402 149.372 35.3074C149.218 35.3526 148.658 35.5922 149.23 35.511C150.126 35.3837 151.014 35.0541 151.878 34.7999C152.859 34.5118 153.84 34.2257 154.812 33.9107C155.416 33.715 157.234 33.3279 156.603 33.263C156.243 33.226 153.809 34.1251 153.976 34.2777C154.473 34.731 156.298 34.2257 156.863 34.1235C157.656 33.9798 159.986 33.3433 159.228 33.6171C157.384 34.2827 155.503 34.8165 153.625 35.3782C153.617 35.3809 152.521 35.6568 153.219 35.646C154.527 35.6258 155.855 35.3863 157.143 35.1935C158.992 34.9169 160.842 34.6178 162.674 34.2421C163.497 34.073 163.385 34.0317 162.668 34.1764C161.457 34.4207 160.27 34.7597 159.086 35.1077" stroke="white" stroke-width="3" stroke-linecap="round"/>
<path d="M157.676 22.0559C157.887 22.7737 158.181 23.462 158.332 24.1952C158.403 24.5393 158.414 25.8835 158.894 25.9914C159.763 26.1869 158.726 21.0981 159.437 25.7306C159.483 26.0304 159.988 28.4179 159.877 26.9761C159.764 25.5058 158.301 21.2923 158.717 22.7071C158.961 23.5387 159.408 24.8834 160.142 25.4019C161.056 26.0467 160.861 23.9449 160.88 23.507C160.882 23.4401 160.806 22.7984 160.911 23.1541C161.137 23.9229 161.345 24.6997 161.614 25.4547C161.675 25.6258 161.958 26.7438 162.175 26.7926C162.335 26.8285 162.274 25.4358 162.269 25.3227C162.263 25.179 162.153 23.7303 161.801 24.1191C161.703 24.2268 160.706 22.7637 160.561 22.5625C160.454 22.4131 160.532 21.8736 160.535 21.8761C160.723 22.0338 160.865 22.4326 161.032 22.6265C161.65 23.3436 162.291 24.0372 162.905 24.7583C163.168 25.0665 163.543 25.6012 163.948 25.7391C164.159 25.8106 163.933 24.8808 163.917 24.8049C163.861 24.5454 163.768 24.0233 163.544 23.8359C163.205 23.552 163.779 24.694 163.974 25.0913C164.303 25.765 164.799 25.8549 165.054 25.0974C165.111 24.927 165.236 23.8855 165.294 23.9417C165.843 24.4773 166.251 22.8149 166.224 23.8973C166.215 24.2883 166.249 24.6965 166.336 25.0779C166.419 25.447 166.494 25.545 166.129 25.314C164.993 24.5967 163.534 24.7571 162.417 24.0594C161.454 23.458 160.65 23.0846 159.543 22.7879C159.329 22.7306 158.176 22.4377 158.38 22.0648C158.971 20.9814 161.764 25.3351 161.444 24.1432C161.232 23.3535 161.074 22.5193 160.847 21.7441C160.719 21.3095 160.895 22.277 160.941 22.4309C161.025 22.7194 160.627 21.7366 160.328 21.7684C159.846 21.8198 161.522 23.4487 161.637 23.5608C162.716 24.6165 165.712 28.0164 164.684 26.9113" stroke="white" stroke-width="3" stroke-linecap="round"/>
<path d="M151.46 33.103C151.616 33.4612 153.816 32.9511 154.099 32.9072C155.851 32.6358 157.553 32.0401 159.251 31.5411C160.22 31.2563 161.238 31.0583 162.078 30.4743C163.061 29.7906 164.295 29.5945 165.436 29.3323C166.15 29.1683 166.85 28.9437 167.553 28.7371C167.789 28.6676 168.012 28.5921 168.231 28.4771C168.309 28.436 168.549 28.3269 168.463 28.3483C168.119 28.4341 167.772 28.5514 167.435 28.6572C165.422 29.2892 163.475 30.0689 161.556 30.9446C159.325 31.9623 156.798 32.9197 154.826 34.4188C154.118 34.9577 154.722 35.0524 154.338 35.5328C153.441 36.6557 151.368 36.2345 150.448 37.2962C150.053 37.7532 151.111 37.8458 151.306 37.8528C152.38 37.8914 153.409 37.5678 154.447 37.3476C156.089 36.9992 153.91 37.784 153.501 37.9357C152.684 38.2387 151.757 38.6714 153.047 38.9384C154.532 39.2456 156.245 37.9539 157.576 37.3985C158.203 37.1368 158.542 36.9722 158.739 37.6429C158.907 38.2118 159.233 38.4717 159.69 38.8126" stroke="white" stroke-width="3" stroke-linecap="round"/>
<path d="M159.67 40.3956C160.887 40.5333 161.743 40.4058 162.802 41.1464C163.343 41.5249 163.832 41.8303 164.321 42.2772C165.176 43.0604 166.266 44.3831 167.5 43.304C168.058 42.8167 168.46 42.7027 168.696 41.9821C168.722 41.9017 168.977 41.2258 169.065 41.4285C169.267 41.8927 169.293 42.3041 169.655 42.6774C169.957 42.9887 170.088 43.4788 170.163 43.9029C170.176 43.972 170.05 43.8139 169.983 43.7941C169.757 43.7277 169.504 43.754 169.272 43.7604C168.675 43.7771 167.622 43.9031 167.099 43.5433C166.783 43.3257 166.567 42.9097 166.322 42.6191C165.901 42.1203 165.389 41.9123 164.832 41.608C164.371 41.357 164.081 41.0019 163.788 40.5802C163.505 40.1731 163.13 39.9378 162.773 39.6046C162.408 39.2633 161.977 39.0107 161.599 38.6826C161.219 38.3523 161.183 37.9449 160.943 37.5275C160.667 37.048 160.208 36.7413 160.92 37.1298C162.035 37.738 163.191 38.207 164.288 38.863C164.902 39.2304 165.678 39.5205 166.134 40.0997C166.327 40.3452 166.418 40.6693 166.637 40.8953C166.806 41.0696 167.233 41.2983 167.465 41.3261C168.187 41.4124 167.044 39.7801 166.967 39.6795C166.116 38.5558 165.054 37.6243 164.042 36.6505C163.306 35.9427 162.466 35.2611 161.404 35.1746C160.461 35.0978 159.906 35.4656 159.635 36.3552C159.495 36.8106 159.158 37.6523 159.572 37.998" stroke="white" stroke-width="3" stroke-linecap="round"/>
<path d="M168.991 40.3251C168.905 40.0337 168.849 39.7148 168.682 39.4588C168.603 39.3375 168.843 39.7524 168.859 39.7843C168.996 40.0549 169.333 40.2524 169.417 40.5369C169.593 41.1349 166.894 42.4199 166.546 42.6007C166.073 42.8461 165.535 42.9953 165.091 43.2912C164.853 43.4494 164.842 43.1905 164.662 43.0262C164.334 42.7258 163.941 42.7558 163.572 42.5717C162.658 42.1159 162.013 40.9623 161.746 40.0282C161.277 38.3916 161.664 36.5722 162.931 35.3932C163.861 34.5273 164.887 34.3961 165.984 33.9027C166.607 33.6228 166.981 32.7738 167.122 32.1327C167.372 31.0007 165.23 31.2708 164.575 31.2166C164.546 31.2143 163.602 31.1558 163.691 31.0315C163.91 30.7274 164.805 30.6369 165.137 30.5391C165.532 30.4232 165.925 30.2954 166.322 30.1908C166.555 30.1295 165.84 30.7115 165.79 30.7651C164.655 31.9851 164.73 33.4233 164.924 34.9491C165.031 35.791 164.851 36.9919 165.232 37.7634C165.523 38.3532 165.744 37.6012 165.93 37.3424C166.335 36.7801 166.335 36.6462 166.271 35.9346C166.201 35.1401 166.539 35.3871 167.216 35.3199C168.303 35.2121 169.712 35.142 170.707 34.6984C171.209 34.4743 171.586 33.9697 172.078 33.7225C172.428 33.5464 172.883 33.4792 173.255 33.3698C174.902 32.8857 176.575 32.5152 178.226 32.03C179.016 31.7979 179.794 31.8543 180.595 31.6976C181.575 31.506 182.591 31.3392 183.552 31.0712C184.707 30.749 185.728 30.1128 186.841 29.7406C187.425 29.5451 187.874 29.1642 187.72 28.5117C187.599 27.9998 187.815 27.4882 187.458 27.0249C187.065 26.5155 186.743 26.5461 186.11 26.5182C185.558 26.4939 185.134 26.5091 184.546 26.5869C183.606 26.7112 183.217 27.1291 182.42 27.4948C181.048 28.1241 179.424 28.2844 178.211 29.2712C177.628 29.7449 177.239 30.2453 176.576 30.6346C175.758 31.1149 174.849 31.3241 173.945 31.5898C172.587 31.989 171.224 32.2683 169.867 32.6671C169.422 32.7979 167.003 32.8831 167.203 31.9944C167.471 30.8031 169.293 30.2315 170.286 30.0773C171.613 29.8711 173.081 29.999 174.399 30.2434C175.259 30.403 175.893 30.5375 176.762 30.4653C177.503 30.4038 178.423 30.6075 179.116 30.2858C179.558 30.0802 179.709 29.4311 180.119 29.1146C180.522 28.8039 180.902 28.4969 181.322 28.2084C181.983 27.7547 182.071 26.7347 181.682 26.0401C181.362 25.4675 181.304 25.312 180.606 25.3589C179.434 25.4378 178.101 25.9378 177.033 26.4093C176.167 26.7912 175.507 27.3698 174.578 27.643C173.539 27.9483 172.365 28.3861 171.266 28.3467C170.845 28.3315 169.427 28.0651 170.51 27.7466C171.737 27.3862 172.976 27.1432 174.204 26.7824C174.988 26.5518 176.172 26.3082 176.873 26.8741C177.329 27.2424 177.307 27.9793 177.631 28.4442" stroke="white" stroke-width="3" stroke-linecap="round"/>
<path d="M146.336 40.4326C145.715 40.8371 146.8 41.1101 147.094 41.1801C147.466 41.2683 147.554 41.5076 147.991 41.5233" stroke="white" stroke-width="3" stroke-linecap="round"/>
<path d="M151.031 48.1515L151.143 48.1187" stroke="white" stroke-width="3" stroke-linecap="round"/>
<path d="M160.919 32.264C160.989 32.1142 161.045 32.8165 161.226 33.0771C161.341 33.2432 161.473 33.3336 161.665 33.3793C161.892 33.4333 161.834 34.0155 161.845 34.1756" stroke="white" stroke-width="3" stroke-linecap="round"/>
<path d="M163.571 42.5246C163.058 43.9616 165.557 44.8525 166.592 44.5483" stroke="white" stroke-width="3" stroke-linecap="round"/>
<path d="M171.335 41.6982C171.236 41.7413 171.272 41.7562 171.257 41.8427" stroke="white" stroke-width="3" stroke-linecap="round"/>
<path d="M168.834 36.4889C168.469 36.596 167.539 36.5791 167.324 36.8787C167.229 37.0109 167.435 37.0978 167.349 36.8039" stroke="white" stroke-width="3" stroke-linecap="round"/>
<path d="M171.238 35.1756C171.419 35.592 174.285 34.5227 174.771 34.3796C176.329 33.9218 177.909 33.4257 179.514 33.2014C181.016 32.9916 183.597 31.908 184.202 30.3946C184.247 30.2829 184.248 29.4672 184.183 29.4567C183.411 29.3334 182.45 29.5605 181.694 29.703C181.583 29.7239 180.908 30.0036 180.793 29.9407C180.727 29.9048 181.383 29.646 181.387 29.6449C182.158 29.4183 182.724 29.0325 183.342 28.5242C183.995 27.9878 184.924 26.3855 184.519 25.5094C184.078 24.5555 182.695 24.4451 181.79 24.5255C180.884 24.6058 179.962 24.6673 179.077 24.8578C178.277 25.0298 177.43 25.3166 176.616 25.4058C175.766 25.499 174.967 25.8642 174.117 25.9852C173.033 26.1397 171.9 26.591 170.904 27.0239" stroke="white" stroke-width="3" stroke-linecap="round"/>
<path d="M166.892 24.9278C167.252 24.7713 166.943 23.8633 166.866 23.601C166.76 23.2403 166.732 22.7286 166.544 23.3316" stroke="white" stroke-width="3" stroke-linecap="round"/>
<path d="M162.358 28.0801C162.278 28.228 162.239 28.3179 162.234 28.4807" stroke="white" stroke-width="3" stroke-linecap="round"/>
<path d="M162.365 28.9273C161.159 30.1517 159.48 30.4785 157.872 30.9759C156.887 31.2804 155.967 31.731 154.944 31.9511C154.249 32.1005 153.529 32.1346 152.864 32.1445C151.907 32.1588 150.922 32.3716 149.983 32.2028" stroke="white" stroke-width="3" stroke-linecap="round"/>
<path d="M149.838 32.124C149.4 32.1535 148.764 31.6581 148.332 31.5421C147.723 31.3783 147.172 31.0991 146.628 30.7893C145.567 30.1836 144.662 29.4222 143.674 28.7189C143.091 28.3035 142.678 27.6546 142.055 27.3144C141.435 26.9759 141.218 26.2865 140.426 26.5193" stroke="white" stroke-width="3" stroke-linecap="round"/>
<path d="M139.182 43.7483C139.565 43.5475 139.898 42.9061 140.205 42.5983C140.643 42.1599 141.154 41.808 141.344 41.1987C141.453 40.8486 141.542 40.5567 141.81 40.3069" stroke="white" stroke-width="3" stroke-linecap="round"/>
</g>
<path d="M26.7104 36.6533L14.9355 66H5.41211L23.2168 28.3203H29.2207L26.7104 36.6533ZM27.021 66L25.3647 35.7734L25.5718 28.3203H31.291L36.0527 66H27.021ZM29.6865 51.9478L28.4443 58.9609H12.5547L13.7969 51.9478H29.6865ZM46.573 59.7373L53.6638 37.999H62.6179L51.0501 66H45.8225L46.573 59.7373ZM48.3328 37.999L48.5916 60.4878L47.6082 66H42.5877L39.7928 37.999H48.3328ZM73.5005 37.999L68.6612 66H60.3541L65.2193 37.999H73.5005ZM66.0733 30.9082C66.0733 29.6143 66.5132 28.5618 67.3931 27.751C68.273 26.9401 69.334 26.526 70.5762 26.5088C71.8012 26.4915 72.8449 26.8711 73.7076 27.6475C74.5875 28.4066 75.0274 29.4159 75.0274 30.6753C75.0274 31.952 74.5875 32.9958 73.7076 33.8066C72.8277 34.6175 71.7667 35.0316 70.5245 35.0488C69.2995 35.0661 68.2558 34.6951 67.3931 33.936C66.5305 33.1597 66.0906 32.1504 66.0733 30.9082ZM88.3167 28.3203L81.7694 66H73.1776L79.6732 28.3203H88.3167ZM96.8309 44.0029L95.6146 50.9902H82.0282L83.2445 44.0029H96.8309ZM100.583 28.3203L99.367 35.3335H84.6937L85.9359 28.3203H100.583ZM112.372 26.25L105.488 66H97.1808L104.09 26.25H112.372ZM117.354 62.2993L126.955 37.999H136.064L121.624 70.1924C121.193 71.1758 120.701 72.0988 120.149 72.9614C119.614 73.8413 118.993 74.609 118.286 75.2646C117.578 75.9202 116.767 76.4378 115.853 76.8174C114.956 77.1969 113.921 77.3781 112.747 77.3608C112.144 77.3781 111.557 77.3263 110.988 77.2056C110.418 77.0848 109.84 76.9382 109.254 76.7656L110.056 70.5547C110.177 70.5719 110.298 70.5806 110.418 70.5806C110.539 70.5978 110.66 70.6064 110.781 70.6064C111.402 70.6237 111.945 70.5288 112.411 70.3218C112.877 70.132 113.282 69.8473 113.627 69.4678C113.972 69.1055 114.266 68.6569 114.507 68.1221L117.354 62.2993ZM121.339 37.999L121.676 58.0034L120.977 66.8281L115.594 66.8022L112.696 37.999H121.339Z" fill="white"/>
<defs>
<clipPath id="clip0_319_256">
<rect width="65" height="43" fill="white" transform="matrix(-0.959417 0.281992 0.281992 0.959417 188.362 2)"/>
</clipPath>
</defs>
</svg>
