<svg width="1951" height="560" viewBox="0 0 1951 560" fill="none" xmlns="http://www.w3.org/2000/svg">
<g clip-path="url(#clip0_319_33)">
<g clip-path="url(#clip1_319_33)">
<path d="M883.097 -64C895.621 -64 906.982 -61.0365 915.307 -56.1612C918.731 -54.1555 921.643 -51.8001 923.903 -49.1873C930.8 -57.3224 942.09 -62.4816 954.738 -62.8747C955.426 -62.8961 956.118 -62.9034 956.813 -62.8965C958.898 -62.8757 961.014 -62.7262 963.148 -62.4402L962.808 -59.9041C944.721 -62.3288 928.363 -54.4571 922.134 -41.8564C921.246 -41.9673 920.356 -42.082 919.474 -42.1818C920.267 -43.9074 921.186 -45.5724 922.295 -47.1263C920.219 -49.6374 917.435 -51.9489 914.013 -53.953C906.178 -58.5419 895.215 -61.4409 883.097 -61.4409C870.979 -61.4409 860.018 -58.5419 852.183 -53.953C848.858 -52.0059 846.119 -49.7735 844.062 -47.3451C848.442 -49.0082 853.202 -50.0223 858.171 -50.2464C858.861 -50.2774 859.554 -50.2936 860.25 -50.2945C862.34 -50.2974 864.46 -50.1632 866.597 -49.8824L866.425 -48.5731L866.601 -49.8804C873.546 -48.9519 879.881 -46.5672 885.295 -43.1712C883.768 -43.071 882.261 -42.9533 880.784 -42.8113C876.426 -45.0466 871.545 -46.6384 866.265 -47.3448C866.263 -47.345 866.262 -47.3447 866.261 -47.3448C864.236 -47.6106 862.23 -47.7388 860.257 -47.7378C859.599 -47.7375 858.945 -47.7228 858.294 -47.694C840.075 -46.8879 824.967 -35.0486 822.82 -18.9204C820.367 -0.488789 835.705 16.9196 857.372 19.8188C860.277 20.2004 863.133 20.2691 865.922 20.1105C867.23 20.8421 868.568 21.5651 869.943 22.2771C865.79 22.8659 861.456 22.9367 857.039 22.3566C857.038 22.3566 857.036 22.3566 857.035 22.3566C853.088 21.8289 849.329 20.8389 845.823 19.4594C846.616 24.3541 849.744 29.1278 854.723 33.2322C861.186 38.5592 870.682 42.6442 881.598 44.1043C892.486 45.5347 902.702 44.0723 910.322 40.6214C911.783 39.9601 913.111 39.2093 914.364 38.415C915.476 38.6839 916.595 38.9456 917.721 39.2007C915.833 40.6222 913.72 41.8931 911.379 42.9535C910.796 43.2172 910.198 43.4664 909.591 43.7072C910.887 45.1889 912.36 46.6223 914.01 47.9886C921.605 54.2751 932.736 59.0741 945.527 60.7716C945.528 60.7716 945.529 60.7716 945.53 60.7716C958.319 62.4982 970.316 60.7688 979.29 56.6723C986.181 53.5263 991.23 49.0361 993.673 43.6773C993.213 43.4211 992.771 43.1391 992.324 42.8632C993.932 42.5765 995.512 42.2713 997.033 41.9278C996.98 42.1083 996.94 42.2933 996.882 42.4723C999.785 43.8287 1002.94 44.7836 1006.3 45.2351C1023.72 47.5263 1039.72 35.4616 1042.01 18.2419C1043.08 10.1803 1040.92 2.45879 1036.57 -3.74002C1034.55 -0.341288 1031.6 2.69054 1027.97 5.19241C1027.2 5.72466 1026.39 6.22352 1025.56 6.70862C1025.17 5.96767 1024.75 5.22641 1024.29 4.48509C1025.06 4.03619 1025.81 3.57608 1026.52 3.08642C1033.08 -1.44262 1036.99 -7.56495 1036.99 -14.2688C1036.99 -20.9721 1033.08 -27.093 1026.52 -31.6219C1019.96 -36.1509 1010.77 -39.0001 1000.6 -39.0001C990.447 -39.0001 981.265 -36.1514 974.693 -31.6219C973.87 -31.0549 973.089 -30.4627 972.352 -29.8477C971.456 -30.1751 970.54 -30.491 969.629 -30.8096C970.749 -31.8392 971.934 -32.8289 973.241 -33.7291C978.749 -37.5252 985.824 -40.1569 993.703 -41.1358C987.948 -50.6679 976.684 -58.0494 962.808 -59.9041L963.148 -62.4402C978.179 -60.4311 990.551 -52.1752 996.541 -41.4133C997.875 -41.5092 999.227 -41.5589 1000.6 -41.5589C1011.25 -41.5589 1020.91 -38.6043 1027.97 -33.7288C1035.04 -28.8534 1039.55 -21.9695 1039.55 -14.2685C1039.55 -11.4617 1038.95 -8.7644 1037.85 -6.23235C1043.08 0.637807 1045.76 9.3987 1044.54 18.5791C1042.07 37.1906 1024.74 50.2434 1005.96 47.7738C1005.96 47.7735 1005.96 47.7732 1005.96 47.7729C1002.4 47.2943 999.04 46.2918 995.947 44.8604C993.174 50.8325 987.593 55.6955 980.353 59.0006C970.846 63.341 958.409 65.0934 945.187 63.3084C931.967 61.5534 920.422 56.6209 912.377 49.9617C910.361 48.2928 908.578 46.5026 907.032 44.6282C899.6 47.057 890.665 47.8781 881.264 46.6431C881.263 46.6428 881.262 46.6425 881.261 46.6422C869.917 45.1255 860.009 40.9076 853.095 35.2085C847.283 30.4186 843.558 24.4997 843.106 18.2898C827.868 11.1392 818.198 -3.60649 820.281 -19.2565C821.799 -30.6579 829.236 -39.9505 839.552 -45.3079C841.891 -49.5009 845.842 -53.2053 850.889 -56.1606C859.213 -61.0359 870.573 -64 883.097 -64Z" fill="white"/>
</g>
<g clip-path="url(#clip2_319_33)">
<path d="M1944.47 73.4847C1932.72 77.832 1921.04 78.9962 1911.54 77.3137C1907.63 76.6215 1904.08 75.4232 1901.06 73.7573C1897.41 83.7807 1888.62 92.5379 1876.89 97.2971C1876.25 97.5559 1875.61 97.8028 1874.95 98.0376C1872.99 98.7419 1870.95 99.3364 1868.85 99.8087L1868.29 97.3122C1886.1 93.308 1898.7 80.2476 1900.17 66.2683C1901.04 66.064 1901.92 65.8626 1902.78 65.6501C1902.64 67.5436 1902.35 69.424 1901.85 71.2663C1904.67 72.9006 1908.08 74.1022 1911.99 74.7939C1920.93 76.3775 1932.22 75.2911 1943.58 71.0847C1954.94 66.8783 1964.22 60.3549 1969.97 53.3314C1972.42 50.3514 1974.21 47.3072 1975.3 44.3157C1971.76 47.3958 1967.65 49.9991 1963.07 51.9341C1962.43 52.2024 1961.79 52.4582 1961.14 52.7009C1959.18 53.4289 1957.14 54.039 1955.04 54.5175L1954.75 53.2297L1955.04 54.517C1948.2 56.0568 1941.43 56.0194 1935.18 54.7137C1936.57 54.0897 1937.95 53.4564 1939.28 52.8104C1944.15 53.3942 1949.28 53.1926 1954.47 52.0222C1954.47 52.0219 1954.48 52.0211 1954.48 52.0208C1956.47 51.5673 1958.39 50.9914 1960.24 50.3053C1960.86 50.0767 1961.47 49.8358 1962.07 49.5831C1978.88 42.5029 1988.93 26.1556 1985.35 10.285C1981.25 -7.85231 1960.83 -18.8543 1939.5 -14.0522C1936.64 -13.4015 1933.94 -12.4745 1931.38 -11.3577C1929.9 -11.5897 1928.39 -11.8034 1926.86 -11.994C1930.55 -13.9878 1934.59 -15.5586 1938.93 -16.5477C1938.93 -16.5482 1938.93 -16.5487 1938.93 -16.5492C1942.82 -17.4243 1946.69 -17.8007 1950.45 -17.7238C1948.01 -22.0388 1943.42 -25.4302 1937.33 -27.5509C1929.42 -30.3033 1919.09 -30.8382 1908.35 -28.4183C1897.64 -25.9803 1888.57 -21.0629 1882.62 -15.1813C1881.48 -14.0542 1880.5 -12.8892 1879.6 -11.7091C1878.46 -11.5754 1877.32 -11.4322 1876.17 -11.2806C1877.45 -13.2693 1878.99 -15.1945 1880.82 -17.0018C1881.27 -17.4512 1881.75 -17.8926 1882.24 -18.3293C1880.51 -19.2689 1878.63 -20.1019 1876.6 -20.8104C1867.3 -24.0699 1855.19 -24.7065 1842.61 -21.8585C1842.61 -21.8581 1842.61 -21.8578 1842.61 -21.8575C1830.01 -19.0375 1819.36 -13.2513 1812.37 -6.29433C1807 -0.951965 1803.82 5.01165 1803.39 10.8851C1803.91 10.9656 1804.42 11.0766 1804.94 11.1803C1803.53 12.0072 1802.16 12.8419 1800.85 13.6923C1800.83 13.5044 1800.81 13.3169 1800.8 13.129C1797.61 12.8646 1794.32 13.0648 1791.01 13.8064C1773.88 17.7036 1763.06 34.5721 1766.89 51.5159C1768.69 59.4479 1773.39 65.9411 1779.62 70.2434C1780.34 66.356 1782.05 62.4884 1784.58 58.8834C1785.12 58.1165 1785.71 57.3657 1786.32 56.6223C1786.94 57.1839 1787.59 57.7325 1788.28 58.2674C1787.72 58.9552 1787.17 59.6485 1786.68 60.354C1782.09 66.88 1780.55 73.9784 1782.88 80.2654C1785.21 86.5519 1791 90.9355 1798.72 92.9043C1806.45 94.8732 1816.05 94.358 1825.6 90.8248C1835.12 87.302 1842.74 81.4432 1847.33 74.9141C1847.9 74.0967 1848.43 73.2702 1848.91 72.4376C1849.86 72.4335 1850.83 72.412 1851.8 72.3944C1851.1 73.7489 1850.34 75.0885 1849.42 76.3861C1845.57 81.8582 1839.85 86.7822 1832.8 90.4352C1841.51 97.377 1854.63 100.39 1868.29 97.3122L1868.85 99.8087C1854.06 103.142 1839.59 99.6941 1830.24 91.6806C1829.02 92.2333 1827.77 92.7494 1826.49 93.2246C1816.49 96.9227 1806.41 97.5042 1798.09 95.3847C1789.77 93.2652 1783.15 88.3756 1780.48 81.1535C1779.5 78.5212 1779.13 75.7827 1779.29 73.0249C1772 68.3982 1766.44 61.1131 1764.4 52.0801C1760.26 33.767 1771.98 15.51 1790.44 11.3095C1790.44 11.3094 1790.45 11.3093 1790.45 11.3092C1793.95 10.522 1797.45 10.2962 1800.85 10.5649C1801.38 4.00152 1804.92 -2.49617 1810.56 -8.10884C1817.97 -15.4796 1829.03 -21.4402 1842.05 -24.3557C1855.06 -27.2985 1867.6 -26.6803 1877.45 -23.2275C1879.92 -22.3622 1882.21 -21.3023 1884.32 -20.0812C1890.44 -24.9386 1898.54 -28.8102 1907.78 -30.9151C1907.78 -30.9152 1907.78 -30.9152 1907.78 -30.9153C1918.95 -33.4306 1929.71 -32.9143 1938.17 -29.9697C1945.28 -27.4948 1950.83 -23.2368 1953.41 -17.5703C1970.18 -16.1536 1984.37 -5.68121 1987.85 9.71888C1990.38 20.9382 1986.63 32.2344 1978.82 40.8394C1978.08 45.5837 1975.66 50.4294 1971.95 54.9526C1965.84 62.4144 1956.21 69.1373 1944.47 73.4847Z" fill="white"/>
</g>
<g clip-path="url(#clip3_319_33)">
<path d="M1254.94 170.427C1244.34 163.763 1236.29 155.209 1231.84 146.651C1230.01 143.131 1228.79 139.587 1228.27 136.173C1218.1 139.391 1205.8 137.752 1194.88 131.354C1194.29 131.007 1193.7 130.645 1193.11 130.269C1191.36 129.142 1189.65 127.889 1187.99 126.512L1189.63 124.546C1203.65 136.222 1221.69 138.261 1233.67 130.907C1234.36 131.473 1235.06 132.044 1235.75 132.598C1234.16 133.637 1232.5 134.558 1230.73 135.283C1231.15 138.514 1232.28 141.952 1234.11 145.47C1238.3 153.525 1246.04 161.812 1256.3 168.26C1266.56 174.708 1277.38 178.085 1286.46 178.369C1290.31 178.49 1293.82 178.057 1296.85 177.095C1292.26 176.173 1287.69 174.499 1283.36 172.044C1282.76 171.704 1282.17 171.349 1281.58 170.979C1279.81 169.869 1278.08 168.628 1276.42 167.253L1277.26 166.236L1276.42 167.249C1271.03 162.768 1266.94 157.378 1264.16 151.622C1265.51 152.35 1266.85 153.052 1268.17 153.717C1270.67 157.929 1273.96 161.874 1278.05 165.281C1278.05 165.282 1278.06 165.283 1278.06 165.284C1279.63 166.586 1281.26 167.762 1282.93 168.811C1283.49 169.161 1284.05 169.496 1284.62 169.818C1300.47 178.83 1319.56 176.844 1329.96 164.331C1341.85 150.031 1338.12 127.13 1321.32 113.147C1319.06 111.278 1316.68 109.7 1314.24 108.35C1313.52 107.034 1312.77 105.71 1311.98 104.376C1315.81 106.087 1319.52 108.333 1322.95 111.175C1322.95 111.176 1322.95 111.176 1322.96 111.177C1326.02 113.724 1328.67 116.563 1330.91 119.596C1332.84 115.029 1332.73 109.323 1330.7 103.199C1328.06 95.2496 1322.2 86.7384 1313.73 79.6937C1305.27 72.6891 1295.85 68.4919 1287.56 67.3588C1285.97 67.1416 1284.44 67.0708 1282.96 67.0763C1282.16 66.257 1281.35 65.4398 1280.54 64.6247C1282.89 64.4261 1285.36 64.474 1287.9 64.8222C1288.54 64.9088 1289.18 65.0163 1289.82 65.1354C1289.51 63.1912 1289.02 61.1939 1288.35 59.1588C1285.27 49.7952 1278.4 39.809 1268.47 31.5656C1268.47 31.5651 1268.47 31.5646 1268.47 31.5641C1258.56 23.2974 1247.48 18.3782 1237.7 17.0716C1230.19 16.0686 1223.53 17.1839 1218.61 20.4213C1218.86 20.8834 1219.09 21.3573 1219.32 21.8284C1217.81 21.2158 1216.31 20.6336 1214.83 20.1148C1214.98 19.9903 1215.11 19.8551 1215.25 19.7344C1213.52 17.0413 1211.35 14.5531 1208.75 12.385C1195.22 1.17732 1175.26 2.87891 1164.15 16.2404C1158.96 22.4962 1156.67 30.1809 1157.06 37.7456C1160.58 35.9409 1164.69 34.9441 1169.09 34.7551C1170.03 34.7149 1170.98 34.7263 1171.94 34.7578C1171.88 35.5894 1171.84 36.4417 1171.84 37.3151C1170.95 37.2861 1170.06 37.2745 1169.2 37.3115C1161.23 37.6535 1154.67 40.7575 1151.1 46.4335C1147.53 52.1091 1147.59 59.3714 1150.73 66.6987C1153.88 74.0259 1160.14 81.324 1168.76 86.74C1177.35 92.1401 1186.64 94.6136 1194.61 94.2756C1195.61 94.2332 1196.59 94.1474 1197.54 94.019C1198.13 94.773 1198.73 95.5276 1199.33 96.2823C1197.84 96.558 1196.31 96.7652 1194.72 96.8324C1188.04 97.1155 1180.65 95.5791 1173.46 92.2156C1173.26 103.348 1178.87 115.592 1189.63 124.546L1187.99 126.512C1176.33 116.813 1170.25 103.24 1170.91 90.9404C1169.73 90.3122 1168.55 89.6348 1167.4 88.9064C1158.38 83.2375 1151.77 75.5971 1148.38 67.7092C1144.99 59.8213 1144.83 51.5919 1148.93 45.0716C1150.43 42.6951 1152.37 40.7315 1154.65 39.175C1153.88 30.5739 1156.27 21.7291 1162.19 14.6051C1174.18 0.163412 1195.8 -1.66671 1210.38 10.4135C1210.38 10.4143 1210.39 10.4151 1210.39 10.4158C1213.15 12.7157 1215.46 15.3519 1217.31 18.2098C1222.84 14.6289 1230.15 13.4808 1238.04 14.5346C1248.4 15.9185 1259.86 21.0524 1270.11 29.599C1280.37 38.1188 1287.52 48.4383 1290.79 58.357C1291.61 60.8427 1292.16 63.3072 1292.47 65.7171C1300.06 67.6149 1308.06 71.674 1315.36 77.7218C1315.36 77.7225 1315.37 77.7233 1315.37 77.724C1324.16 85.0442 1330.31 93.8877 1333.13 102.392C1335.5 109.54 1335.51 116.533 1332.59 122.032C1341.68 136.194 1342.02 153.824 1331.93 165.966C1324.58 174.812 1313.34 178.723 1301.76 177.77C1297.54 180.076 1292.23 181.11 1286.38 180.927C1276.74 180.625 1265.54 177.091 1254.94 170.427Z" fill="white"/>
</g>
<g clip-path="url(#clip4_319_33)">
<path d="M129.234 45.8556C117.465 50.1391 105.776 51.2399 96.2859 49.5058C92.3817 48.7924 88.8401 47.5749 85.8228 45.8926C82.1238 55.8961 73.2797 64.6053 61.5284 69.3009C60.8895 69.5562 60.2421 69.7995 59.5865 70.0308C57.6199 70.7245 55.5801 71.3079 53.4775 71.7688L52.9297 69.2693C70.7546 65.3618 83.4341 52.37 84.9775 38.3988C85.8502 38.1993 86.7257 38.0027 87.5884 37.7948C87.4336 39.6876 87.1397 41.5663 86.6288 43.4059C89.4387 45.0555 92.8449 46.2756 96.746 46.9885C105.679 48.6206 116.971 47.5955 128.359 43.4508C139.746 39.3062 149.054 32.8332 154.848 25.8411C157.306 22.8743 159.116 19.8399 160.218 16.8544C156.671 19.9153 152.545 22.4962 147.952 24.4063C147.315 24.6712 146.67 24.9234 146.015 25.1626C144.053 25.8799 142.014 26.479 139.91 26.9461L139.625 25.6567L139.906 26.9456C133.062 28.4482 126.294 28.3741 120.045 27.0345C121.446 26.4181 122.821 25.7922 124.161 25.1534C129.02 25.7637 134.151 25.5899 139.355 24.4478C139.356 24.4474 139.357 24.4467 139.359 24.4464C141.352 24.0036 143.281 23.4382 145.135 22.7622C145.753 22.5369 146.363 22.2993 146.964 22.0499C163.809 15.061 173.956 -1.23142 170.458 -17.1213C166.459 -35.2805 146.092 -46.3932 124.74 -41.707C121.879 -41.0718 119.172 -40.1595 116.605 -39.0565C115.126 -39.2967 113.622 -39.5185 112.086 -39.7174C115.788 -41.6912 119.836 -43.24 124.185 -44.2055C124.186 -44.206 124.187 -44.2065 124.189 -44.2069C128.078 -45.061 131.949 -45.4164 135.715 -45.319C133.296 -49.6473 128.724 -53.0635 122.641 -55.2172C114.746 -58.0125 104.426 -58.6035 93.6687 -56.2419C82.948 -53.8621 73.849 -48.994 67.868 -43.1448C66.7218 -42.0239 65.7309 -40.8642 64.8245 -39.6891C63.6877 -39.5615 62.5463 -39.4245 61.4011 -39.2792C62.6897 -41.2609 64.24 -43.1776 66.0779 -44.9751C66.5349 -45.422 67.0121 -45.8608 67.5002 -46.2948C65.7754 -47.2438 63.9012 -48.087 61.8829 -48.8064C52.5964 -52.1164 40.4947 -52.8187 27.8944 -50.039C27.8935 -50.0387 27.8926 -50.0384 27.8917 -50.0381C15.2835 -47.2865 4.60155 -41.5582 -2.43038 -34.6393C-7.82991 -29.3262 -11.0386 -23.3799 -11.5013 -17.5088C-10.9809 -17.4255 -10.4691 -17.3117 -9.95519 -17.2052C-11.3678 -16.386 -12.748 -15.5588 -14.0604 -14.7156C-14.072 -14.9034 -14.0974 -15.0911 -14.1043 -15.279C-17.2961 -15.5608 -20.589 -15.3784 -23.8973 -14.6548C-41.0481 -10.8507 -51.957 5.95887 -48.219 22.9232C-46.4681 30.8648 -41.8016 37.3835 -35.5908 41.7195C-34.8585 37.8361 -33.1224 33.9778 -30.5707 30.3867C-30.0279 29.6227 -29.4324 28.8751 -28.8174 28.135C-28.2032 28.7 -27.5529 29.2521 -26.8653 29.7907C-27.4342 30.4755 -27.9854 31.1658 -28.4848 31.8686C-33.104 38.3696 -34.683 45.4595 -32.3901 51.7591C-30.0975 58.0581 -24.331 62.4731 -16.6138 64.4838C-8.89667 66.4946 0.706174 66.0316 10.271 62.5502C19.8078 59.0791 27.4615 53.2618 32.0882 46.7577C32.6674 45.9435 33.1988 45.1199 33.6812 44.2898C34.6353 44.2909 35.6036 44.2747 36.569 44.2623C35.8686 45.613 35.0931 46.9484 34.1736 48.2411C30.2957 53.6922 24.5473 58.585 17.4782 62.1997C26.1462 69.1887 39.2555 72.2725 52.9297 69.2693L53.4775 71.7688C38.6654 75.0219 24.2158 71.4953 14.9061 63.4312C13.6861 63.9773 12.4323 64.4866 11.146 64.9548C1.13454 68.5987 -8.95135 69.1253 -17.259 66.9607C-25.5666 64.7961 -32.1612 59.8707 -34.7951 52.6341C-35.7551 49.9966 -36.112 47.2561 -35.9407 44.4992C-43.2076 39.833 -48.7243 32.5178 -50.718 23.4739C-54.7586 5.13861 -42.9373 -13.0546 -24.4513 -17.1548C-24.4502 -17.1549 -24.4492 -17.1549 -24.4481 -17.155C-20.9384 -17.9232 -17.4389 -18.13 -14.0425 -17.8429C-13.4792 -24.4033 -9.8985 -30.8816 -4.22572 -36.4636C3.22392 -43.794 14.3118 -49.6945 27.3468 -52.5393C40.3691 -55.4114 52.9053 -54.7251 62.7423 -51.2189C65.2075 -50.3403 67.4954 -49.2679 69.5897 -48.0354C75.7424 -52.8595 83.8578 -56.6871 93.1142 -58.7418C93.1151 -58.7419 93.1161 -58.7419 93.1171 -58.742C104.296 -61.1966 115.049 -60.622 123.496 -57.6314C130.595 -55.118 136.119 -50.8299 138.669 -45.1495C155.434 -43.6418 169.563 -33.0925 172.958 -17.6738C175.432 -6.4409 171.622 4.83477 163.76 13.3973C162.996 18.1375 160.55 22.97 156.819 27.473C150.664 34.9015 141.003 41.5721 129.234 45.8556Z" fill="white"/>
</g>
<g clip-path="url(#clip5_319_33)">
<path d="M687.225 141.669C675.127 138.428 664.921 132.625 658.142 125.761C655.353 122.937 653.15 119.909 651.643 116.8C642.875 122.873 630.635 124.934 618.316 122.04C617.646 121.883 616.976 121.711 616.307 121.524C614.298 120.964 612.292 120.272 610.306 119.444L611.291 117.082C628.133 124.105 645.971 120.736 655.249 110.177C656.078 110.514 656.908 110.855 657.734 111.179C656.522 112.641 655.203 114.011 653.73 115.225C655.085 118.188 657.176 121.141 659.962 123.963C666.343 130.423 676.182 136.061 687.887 139.197C699.592 142.334 710.93 142.37 719.686 139.966C723.402 138.946 726.625 137.498 729.24 135.685C724.579 136.158 719.719 135.905 714.861 134.835C714.187 134.687 713.513 134.523 712.84 134.344C710.821 133.806 708.808 133.127 706.816 132.303L707.322 131.083L706.813 132.3C700.345 129.606 694.843 125.663 690.493 120.981C691.994 121.28 693.48 121.556 694.943 121.801C698.574 125.088 702.877 127.889 707.794 129.938C707.796 129.939 707.797 129.939 707.798 129.939C709.685 130.72 711.589 131.363 713.496 131.873C714.131 132.043 714.767 132.198 715.403 132.338C733.21 136.275 750.867 128.749 757.115 113.726C764.256 96.5579 753.946 75.7729 733.768 67.3647C731.06 66.2441 728.319 65.4385 725.584 64.8698C724.51 63.8246 723.405 62.78 722.261 61.7365C726.425 62.2426 730.63 63.2959 734.746 64.9994C734.747 64.9998 734.748 65.0001 734.75 65.0005C738.426 66.5318 741.801 68.4611 744.829 70.7007C745.33 65.7676 743.545 60.3471 739.797 55.0938C734.933 48.2756 726.819 41.8722 716.652 37.6364C706.505 33.4367 696.26 32.2054 688.005 33.5663C686.423 33.8271 684.947 34.2086 683.53 34.6514C682.526 34.1038 681.512 33.5614 680.491 33.0235C682.683 32.1393 685.052 31.4584 687.589 31.0402C688.219 30.9363 688.862 30.8505 689.511 30.7749C688.642 29.0083 687.591 27.2426 686.35 25.4956C680.641 17.4577 671.131 9.94119 659.215 4.99091C659.214 4.99067 659.213 4.99043 659.212 4.99019C647.306 0.0123891 635.27 -1.42217 625.542 0.212078C618.071 1.4673 612.032 4.49778 608.286 9.04166C608.664 9.40841 609.018 9.7952 609.378 10.1772C607.751 10.038 606.146 9.92396 604.587 9.86194C604.685 9.70138 604.772 9.53312 604.874 9.37523C602.421 7.31367 599.619 5.57429 596.494 4.26953C580.263 -2.45167 561.686 5.06085 555.017 21.1012C551.897 28.6109 551.98 36.6272 554.581 43.7415C557.408 40.9805 561.043 38.8157 565.193 37.3376C566.076 37.0231 566.993 36.7523 567.921 36.4988C568.1 37.3139 568.316 38.1392 568.57 38.9748C567.711 39.2094 566.864 39.4587 566.052 39.748C558.539 42.4238 553.179 47.3259 551.444 53.8013C549.709 60.2761 551.9 67.2002 557.069 73.2737C562.237 79.3472 570.369 84.4759 580.2 87.1103C590.003 89.737 599.61 89.3618 607.13 86.6876C608.072 86.3529 608.979 85.983 609.851 85.5798C610.632 86.1279 611.434 86.67 612.232 87.2136C610.884 87.9183 609.482 88.5674 607.988 89.0989C601.684 91.3399 594.169 92.0507 586.305 90.9571C589.397 101.654 598.367 111.699 611.291 117.082L610.306 119.444C596.306 113.613 586.493 102.436 583.492 90.4905C582.179 90.2381 580.86 89.9361 579.538 89.5819C569.247 86.8244 560.683 81.4708 555.119 74.9326C549.556 68.3944 546.979 60.5772 548.972 53.1386C549.699 50.4275 550.978 47.9778 552.7 45.8178C549.423 37.8274 549.1 28.6709 552.654 20.119C559.861 2.78197 579.98 -5.34055 597.475 1.90388C597.475 1.90442 597.476 1.90497 597.477 1.90551C600.793 3.28939 603.778 5.12716 606.396 7.31044C610.62 2.25959 617.269 -0.993354 625.117 -2.31206C635.424 -4.04383 647.891 -2.51754 660.201 2.62877C672.515 7.74532 682.391 15.498 688.438 24.0124C689.953 26.1461 691.212 28.3368 692.221 30.5476C700.028 30.125 708.871 31.6445 717.632 35.2706C717.633 35.2711 717.633 35.2716 717.634 35.2721C728.199 39.6732 736.679 46.3119 741.882 53.6064C746.256 59.7371 748.322 66.4184 747.152 72.5339C760.02 83.3847 765.543 100.131 759.481 114.708C755.064 125.328 745.475 132.379 734.124 134.884C730.78 138.329 726.004 140.884 720.365 142.433C711.062 144.988 699.322 144.911 687.225 141.669Z" fill="white"/>
</g>
<g clip-path="url(#clip6_319_33)">
<path d="M341.619 94.7124C332.763 85.8565 326.826 75.7278 324.387 66.394C323.383 62.5541 322.99 58.8298 323.239 55.3842C312.61 56.2594 300.979 51.9246 291.757 43.2587C291.256 42.7876 290.762 42.3037 290.275 41.8073C288.815 40.3181 287.424 38.716 286.118 37.0051L288.152 35.4524C299.226 49.9558 316.359 55.9568 329.674 51.4511C330.224 52.1577 330.772 52.8681 331.325 53.5621C329.544 54.2217 327.717 54.7494 325.834 55.0638C325.526 58.3075 325.86 61.9102 326.863 65.7471C329.158 74.5326 334.86 84.334 343.429 92.9028C351.998 101.472 361.798 107.172 370.584 109.468C374.311 110.442 377.826 110.8 380.998 110.537C376.725 108.616 372.642 105.968 368.97 102.612C368.46 102.147 367.959 101.668 367.466 101.176C365.986 99.7007 364.582 98.1066 363.269 96.3969L364.317 95.5932L363.268 96.3926C359.014 90.8256 356.22 84.6597 354.794 78.4304C355.944 79.4393 357.093 80.4213 358.238 81.3656C359.738 86.0273 362.065 90.6045 365.299 94.8377C365.3 94.8388 365.301 94.8396 365.302 94.8407C366.545 96.4603 367.873 97.9691 369.269 99.364C369.735 99.8289 370.208 100.281 370.688 100.721C384.141 113.034 403.195 115.345 416.118 105.459C430.886 94.1603 432.35 71.0053 419.079 53.6342C417.294 51.3099 415.323 49.2418 413.239 47.3817C412.831 45.9395 412.397 44.4823 411.928 43.0068C415.281 45.5272 418.396 48.5415 421.109 52.0749C421.11 52.0759 421.111 52.0769 421.112 52.0779C423.529 55.242 425.487 58.6003 426.991 62.0542C429.891 58.0325 431.055 52.4455 430.436 46.0222C429.633 37.6855 425.807 28.0826 419.121 19.3311C412.433 10.6206 404.176 4.43141 396.347 1.48281C394.846 0.917743 393.377 0.509775 391.929 0.184918C391.333 -0.791452 390.726 -1.768 390.11 -2.74454C392.451 -2.41414 394.843 -1.81913 397.249 -0.913077C397.847 -0.687753 398.447 -0.440775 399.046 -0.181813C399.177 -2.146 399.149 -4.20101 398.949 -6.33423C398.024 -16.1496 393.546 -27.4142 385.701 -37.6592C385.701 -37.6599 385.7 -37.6606 385.699 -37.6612C377.877 -47.9253 368.171 -55.1855 358.929 -58.6346C351.831 -61.2828 345.086 -61.6778 339.57 -59.616C339.714 -59.1091 339.827 -58.5971 339.948 -58.0864C338.609 -59.0204 337.276 -59.9218 335.957 -60.7548C336.122 -60.8447 336.281 -60.947 336.449 -61.0327C335.355 -64.0445 333.798 -66.9519 331.744 -69.6444C321.048 -83.5807 301.203 -86.3634 287.408 -75.8062C280.951 -70.863 277.015 -63.8789 275.71 -56.4175C279.539 -57.395 283.77 -57.4521 288.103 -56.6572C289.024 -56.4881 289.954 -56.2644 290.884 -56.0198C290.632 -55.2244 290.406 -54.4016 290.209 -53.5508C289.348 -53.7771 288.489 -53.9849 287.641 -54.1405C279.797 -55.5794 272.704 -54.0141 267.964 -49.2738C263.224 -44.5339 261.659 -37.4419 263.099 -29.5979C264.538 -21.754 269.016 -13.2466 276.213 -6.04914C283.389 1.12714 291.896 5.60533 299.746 7.04973C300.729 7.23055 301.7 7.36409 302.656 7.45055C303.058 8.31565 303.482 9.18639 303.902 10.0561C302.381 9.99214 300.843 9.85373 299.283 9.56667C292.704 8.35579 285.84 5.21382 279.577 0.334686C276.906 11.1442 279.651 24.3286 288.152 35.4524L286.118 37.0051C276.91 24.9557 273.999 10.3695 277.373 -1.47605C276.363 -2.35094 275.371 -3.272 274.404 -4.23989C266.87 -11.7734 262.13 -20.6918 260.581 -29.1358C259.032 -37.5799 260.709 -45.6382 266.154 -51.0836C268.139 -53.0683 270.472 -54.55 273.043 -55.5599C274.201 -64.1179 278.499 -72.2093 285.853 -77.8383C300.763 -89.2492 322.247 -86.2242 333.776 -71.203C333.777 -71.2021 333.777 -71.2012 333.778 -71.2002C335.957 -68.344 337.623 -65.2598 338.799 -62.0603C344.982 -64.3223 352.367 -63.8149 359.823 -61.0327C369.615 -57.379 379.649 -49.8237 387.736 -39.2121C395.843 -28.6237 400.519 -16.9721 401.498 -6.57492C401.744 -3.96933 401.739 -1.44262 401.507 0.976359C408.479 4.5138 415.378 10.2513 421.152 17.772C421.152 17.7729 421.153 17.7738 421.153 17.7746C428.102 26.8685 432.126 36.8575 432.985 45.7765C433.708 53.2727 432.156 60.0917 428.085 64.803C433.804 80.6341 430.215 97.8983 417.675 107.491C408.54 114.48 396.711 115.793 385.628 112.286C381.009 113.597 375.596 113.422 369.938 111.944C360.604 109.505 350.475 103.568 341.619 94.7124Z" fill="white"/>
</g>
<g clip-path="url(#clip7_319_33)">
<path d="M1654.87 38.6355C1646.02 47.4914 1635.89 53.4291 1626.56 55.8682C1622.72 56.8716 1618.99 57.2649 1615.55 57.0154C1616.42 67.6449 1612.09 79.2758 1603.42 88.4978C1602.95 88.9991 1602.47 89.4933 1601.97 89.98C1600.48 91.4398 1598.88 92.8306 1597.17 94.1369L1595.61 92.1031C1610.12 81.0286 1616.12 63.8954 1611.61 50.581C1612.32 50.0313 1613.03 49.4832 1613.72 48.9301C1614.38 50.711 1614.91 52.5379 1615.23 54.421C1618.47 54.7286 1622.07 54.3949 1625.91 53.3922C1634.69 51.0964 1644.5 45.3949 1653.06 36.826C1661.63 28.2571 1667.33 18.4568 1669.63 9.67132C1670.6 5.94361 1670.96 2.4286 1670.7 -0.743143C1668.78 3.53002 1666.13 7.61292 1662.77 11.2851C1662.31 11.7944 1661.83 12.296 1661.34 12.7892C1659.86 14.2688 1658.27 15.6731 1656.56 16.9857L1655.76 15.9378L1656.55 16.9871C1650.99 21.2411 1644.82 24.0345 1638.59 25.4611C1639.6 24.3106 1640.58 23.1621 1641.53 22.017C1646.19 20.5165 1650.77 18.1903 1655 14.9562C1655 14.9553 1655 14.9541 1655 14.9532C1656.62 13.7095 1658.13 12.382 1659.53 10.9857C1659.99 10.5204 1660.44 10.0473 1660.88 9.56716C1673.2 -3.88585 1675.51 -22.9403 1665.62 -35.8627C1654.32 -50.6308 1631.17 -52.0949 1613.8 -38.824C1611.47 -37.0393 1609.4 -35.0683 1607.54 -32.984C1606.1 -32.5764 1604.64 -32.1417 1603.17 -31.6732C1605.69 -35.0262 1608.7 -38.1407 1612.24 -40.8537C1612.24 -40.8547 1612.24 -40.8557 1612.24 -40.8567C1615.4 -43.2745 1618.76 -45.2326 1622.22 -46.7358C1618.19 -49.6361 1612.61 -50.8002 1606.18 -50.1814C1597.85 -49.3782 1588.24 -45.5523 1579.49 -38.8658C1570.78 -32.1782 1564.59 -23.9208 1561.64 -16.0919C1561.08 -14.5916 1560.67 -13.1218 1560.35 -11.6737C1559.37 -11.0776 1558.39 -10.4711 1557.42 -9.85536C1557.75 -12.1961 1558.34 -14.5884 1559.25 -16.9941C1559.47 -17.5923 1559.72 -18.1917 1559.98 -18.7913C1558.02 -18.9225 1555.96 -18.8946 1553.83 -18.6936C1544.01 -17.7688 1532.75 -13.291 1522.5 -5.44659C1522.5 -5.44592 1522.5 -5.44526 1522.5 -5.4446C1512.24 2.37767 1504.98 12.0837 1501.53 21.3261C1498.88 28.4234 1498.48 35.1686 1500.55 40.6851C1501.05 40.5407 1501.56 40.4275 1502.08 40.3069C1501.14 41.6463 1500.24 42.9793 1499.41 44.2982C1499.32 44.1328 1499.21 43.9735 1499.13 43.8061C1496.12 44.8996 1493.21 46.4565 1490.52 48.5106C1476.58 59.2065 1473.8 79.0514 1484.36 92.8466C1489.3 99.3041 1496.28 103.24 1503.74 104.545C1502.77 100.716 1502.71 96.4853 1503.5 92.1523C1503.67 91.2304 1503.9 90.3013 1504.14 89.3706C1504.94 89.6231 1505.76 89.8486 1506.61 90.0462C1506.38 90.9072 1506.18 91.7658 1506.02 92.6138C1504.58 100.458 1506.15 107.551 1510.89 112.291C1515.63 117.031 1522.72 118.595 1530.56 117.156C1538.41 115.717 1546.92 111.239 1554.11 104.042C1561.29 96.8656 1565.77 88.3587 1567.21 80.5087C1567.39 79.5259 1567.53 78.5549 1567.61 77.5987C1568.48 77.1966 1569.35 76.7726 1570.22 76.3534C1570.15 77.8736 1570.02 79.4115 1569.73 80.9717C1568.52 87.551 1565.38 94.4148 1560.5 100.678C1571.31 103.349 1584.49 100.604 1595.61 92.1031L1597.17 94.1369C1585.12 103.345 1570.53 106.256 1558.69 102.881C1557.81 103.892 1556.89 104.883 1555.92 105.851C1548.39 113.385 1539.47 118.125 1531.03 119.674C1522.58 121.223 1514.52 119.546 1509.08 114.101C1507.09 112.116 1505.61 109.783 1504.6 107.212C1496.04 106.054 1487.95 101.756 1482.32 94.4017C1470.91 79.492 1473.94 58.0075 1488.96 46.4789C1488.96 46.4784 1488.96 46.4779 1488.96 46.4773C1491.82 44.2979 1494.9 42.6315 1498.1 41.4563C1495.84 35.2725 1496.35 27.8879 1499.13 20.4315C1502.78 10.6395 1510.34 0.605909 1520.95 -7.48115C1531.54 -15.5877 1543.19 -20.2637 1553.59 -21.2433C1556.19 -21.4888 1558.72 -21.4838 1561.14 -21.2519C1564.68 -28.2242 1570.41 -35.1229 1577.93 -40.897C1577.93 -40.8975 1577.94 -40.898 1577.94 -40.8984C1587.03 -47.8474 1597.02 -51.8713 1605.94 -52.7306C1613.43 -53.4528 1620.25 -51.9013 1624.96 -47.8305C1640.8 -53.5491 1658.06 -49.9597 1667.65 -37.4204C1674.64 -28.2852 1675.95 -16.4558 1672.45 -5.37315C1673.76 -0.754119 1673.58 4.65937 1672.11 10.3174C1669.67 19.6512 1663.73 29.7796 1654.87 38.6355Z" fill="white"/>
</g>
<g clip-path="url(#clip8_319_33)">
<path d="M883.097 -64C895.621 -64 906.982 -61.0365 915.307 -56.1612C918.731 -54.1555 921.643 -51.8001 923.903 -49.1873C930.8 -57.3224 942.09 -62.4816 954.738 -62.8747C955.426 -62.8961 956.118 -62.9034 956.813 -62.8965C958.898 -62.8757 961.014 -62.7262 963.148 -62.4402L962.808 -59.9041C944.721 -62.3288 928.363 -54.4571 922.134 -41.8564C921.246 -41.9673 920.356 -42.082 919.474 -42.1818C920.267 -43.9074 921.186 -45.5724 922.295 -47.1263C920.219 -49.6374 917.435 -51.9489 914.013 -53.953C906.178 -58.5419 895.215 -61.4409 883.097 -61.4409C870.979 -61.4409 860.018 -58.5419 852.183 -53.953C848.858 -52.0059 846.119 -49.7735 844.062 -47.3451C848.442 -49.0082 853.202 -50.0223 858.171 -50.2464C858.861 -50.2774 859.554 -50.2936 860.25 -50.2945C862.34 -50.2974 864.46 -50.1632 866.597 -49.8824L866.425 -48.5731L866.601 -49.8804C873.546 -48.9519 879.881 -46.5672 885.295 -43.1712C883.768 -43.071 882.261 -42.9533 880.784 -42.8113C876.426 -45.0466 871.545 -46.6384 866.265 -47.3448C866.263 -47.345 866.262 -47.3447 866.261 -47.3448C864.236 -47.6106 862.23 -47.7388 860.257 -47.7378C859.599 -47.7375 858.945 -47.7228 858.294 -47.694C840.075 -46.8879 824.967 -35.0486 822.82 -18.9204C820.367 -0.488789 835.705 16.9196 857.372 19.8188C860.277 20.2004 863.133 20.2691 865.922 20.1105C867.23 20.8421 868.568 21.5651 869.943 22.2771C865.79 22.8659 861.456 22.9367 857.039 22.3566C857.038 22.3566 857.036 22.3566 857.035 22.3566C853.088 21.8289 849.329 20.8389 845.823 19.4594C846.616 24.3541 849.744 29.1278 854.723 33.2322C861.186 38.5592 870.682 42.6442 881.598 44.1043C892.486 45.5347 902.702 44.0723 910.322 40.6214C911.783 39.9601 913.111 39.2093 914.364 38.415C915.476 38.6839 916.595 38.9456 917.721 39.2007C915.833 40.6222 913.72 41.8931 911.379 42.9535C910.796 43.2172 910.198 43.4664 909.591 43.7072C910.887 45.1889 912.36 46.6223 914.01 47.9886C921.605 54.2751 932.736 59.0741 945.527 60.7716C945.528 60.7716 945.529 60.7716 945.53 60.7716C958.319 62.4982 970.316 60.7688 979.29 56.6723C986.181 53.5263 991.23 49.0361 993.673 43.6773C993.213 43.4211 992.771 43.1391 992.324 42.8632C993.932 42.5765 995.512 42.2713 997.033 41.9278C996.98 42.1083 996.94 42.2933 996.882 42.4723C999.785 43.8287 1002.94 44.7836 1006.3 45.2351C1023.72 47.5263 1039.72 35.4616 1042.01 18.2419C1043.08 10.1803 1040.92 2.45879 1036.57 -3.74002C1034.55 -0.341288 1031.6 2.69054 1027.97 5.19241C1027.2 5.72466 1026.39 6.22352 1025.56 6.70862C1025.17 5.96767 1024.75 5.22641 1024.29 4.48509C1025.06 4.03619 1025.81 3.57608 1026.52 3.08642C1033.08 -1.44262 1036.99 -7.56495 1036.99 -14.2688C1036.99 -20.9721 1033.08 -27.093 1026.52 -31.6219C1019.96 -36.1509 1010.77 -39.0001 1000.6 -39.0001C990.447 -39.0001 981.265 -36.1514 974.693 -31.6219C973.87 -31.0549 973.089 -30.4627 972.352 -29.8477C971.456 -30.1751 970.54 -30.491 969.629 -30.8096C970.749 -31.8392 971.934 -32.8289 973.241 -33.7291C978.749 -37.5252 985.824 -40.1569 993.703 -41.1358C987.948 -50.6679 976.684 -58.0494 962.808 -59.9041L963.148 -62.4402C978.179 -60.4311 990.551 -52.1752 996.541 -41.4133C997.875 -41.5092 999.227 -41.5589 1000.6 -41.5589C1011.25 -41.5589 1020.91 -38.6043 1027.97 -33.7288C1035.04 -28.8534 1039.55 -21.9695 1039.55 -14.2685C1039.55 -11.4617 1038.95 -8.7644 1037.85 -6.23235C1043.08 0.637807 1045.76 9.3987 1044.54 18.5791C1042.07 37.1906 1024.74 50.2434 1005.96 47.7738C1005.96 47.7735 1005.96 47.7732 1005.96 47.7729C1002.4 47.2943 999.04 46.2918 995.947 44.8604C993.174 50.8325 987.593 55.6955 980.353 59.0006C970.846 63.341 958.409 65.0934 945.187 63.3084C931.967 61.5534 920.422 56.6209 912.377 49.9617C910.361 48.2928 908.578 46.5026 907.032 44.6282C899.6 47.057 890.665 47.8781 881.264 46.6431C881.263 46.6428 881.262 46.6425 881.261 46.6422C869.917 45.1255 860.009 40.9076 853.095 35.2085C847.283 30.4186 843.558 24.4997 843.106 18.2898C827.868 11.1392 818.198 -3.60649 820.281 -19.2565C821.799 -30.6579 829.236 -39.9505 839.552 -45.3079C841.891 -49.5009 845.842 -53.2053 850.889 -56.1606C859.213 -61.0359 870.573 -64 883.097 -64Z" fill="white"/>
</g>
<g clip-path="url(#clip9_319_33)">
<path d="M1944.47 73.4847C1932.72 77.832 1921.04 78.9962 1911.54 77.3137C1907.63 76.6215 1904.08 75.4232 1901.06 73.7573C1897.41 83.7807 1888.62 92.5379 1876.89 97.2971C1876.25 97.5559 1875.61 97.8028 1874.95 98.0376C1872.99 98.7419 1870.95 99.3364 1868.85 99.8087L1868.29 97.3122C1886.1 93.308 1898.7 80.2476 1900.17 66.2683C1901.04 66.064 1901.92 65.8626 1902.78 65.6501C1902.64 67.5436 1902.35 69.424 1901.85 71.2663C1904.67 72.9006 1908.08 74.1022 1911.99 74.7939C1920.93 76.3775 1932.22 75.2911 1943.58 71.0847C1954.94 66.8783 1964.22 60.3549 1969.97 53.3314C1972.42 50.3514 1974.21 47.3072 1975.3 44.3157C1971.76 47.3958 1967.65 49.9991 1963.07 51.9341C1962.43 52.2024 1961.79 52.4582 1961.14 52.7009C1959.18 53.4289 1957.14 54.039 1955.04 54.5175L1954.75 53.2297L1955.04 54.517C1948.2 56.0568 1941.43 56.0194 1935.18 54.7137C1936.57 54.0897 1937.95 53.4564 1939.28 52.8104C1944.15 53.3942 1949.28 53.1926 1954.47 52.0222C1954.47 52.0219 1954.48 52.0211 1954.48 52.0208C1956.47 51.5673 1958.39 50.9914 1960.24 50.3053C1960.86 50.0767 1961.47 49.8358 1962.07 49.5831C1978.88 42.5029 1988.93 26.1556 1985.35 10.285C1981.25 -7.85231 1960.83 -18.8543 1939.5 -14.0522C1936.64 -13.4015 1933.94 -12.4745 1931.38 -11.3577C1929.9 -11.5897 1928.39 -11.8034 1926.86 -11.994C1930.55 -13.9878 1934.59 -15.5586 1938.93 -16.5477C1938.93 -16.5482 1938.93 -16.5487 1938.93 -16.5492C1942.82 -17.4243 1946.69 -17.8007 1950.45 -17.7238C1948.01 -22.0388 1943.42 -25.4302 1937.33 -27.5509C1929.42 -30.3033 1919.09 -30.8382 1908.35 -28.4183C1897.64 -25.9803 1888.57 -21.0629 1882.62 -15.1813C1881.48 -14.0542 1880.5 -12.8892 1879.6 -11.7091C1878.46 -11.5754 1877.32 -11.4322 1876.17 -11.2806C1877.45 -13.2693 1878.99 -15.1945 1880.82 -17.0018C1881.27 -17.4512 1881.75 -17.8926 1882.24 -18.3293C1880.51 -19.2689 1878.63 -20.1019 1876.6 -20.8104C1867.3 -24.0699 1855.19 -24.7065 1842.61 -21.8585C1842.61 -21.8581 1842.61 -21.8578 1842.61 -21.8575C1830.01 -19.0375 1819.36 -13.2513 1812.37 -6.29433C1807 -0.951965 1803.82 5.01165 1803.39 10.8851C1803.91 10.9656 1804.42 11.0766 1804.94 11.1803C1803.53 12.0072 1802.16 12.8419 1800.85 13.6923C1800.83 13.5044 1800.81 13.3169 1800.8 13.129C1797.61 12.8646 1794.32 13.0648 1791.01 13.8064C1773.88 17.7036 1763.06 34.5721 1766.89 51.5159C1768.69 59.4479 1773.39 65.9411 1779.62 70.2434C1780.34 66.356 1782.05 62.4884 1784.58 58.8834C1785.12 58.1165 1785.71 57.3657 1786.32 56.6223C1786.94 57.1839 1787.59 57.7325 1788.28 58.2674C1787.72 58.9552 1787.17 59.6485 1786.68 60.354C1782.09 66.88 1780.55 73.9784 1782.88 80.2654C1785.21 86.5519 1791 90.9355 1798.72 92.9043C1806.45 94.8732 1816.05 94.358 1825.6 90.8248C1835.12 87.302 1842.74 81.4432 1847.33 74.9141C1847.9 74.0967 1848.43 73.2702 1848.91 72.4376C1849.86 72.4335 1850.83 72.412 1851.8 72.3944C1851.1 73.7489 1850.34 75.0885 1849.42 76.3861C1845.57 81.8582 1839.85 86.7822 1832.8 90.4352C1841.51 97.377 1854.63 100.39 1868.29 97.3122L1868.85 99.8087C1854.06 103.142 1839.59 99.6941 1830.24 91.6806C1829.02 92.2333 1827.77 92.7494 1826.49 93.2246C1816.49 96.9227 1806.41 97.5042 1798.09 95.3847C1789.77 93.2652 1783.15 88.3756 1780.48 81.1535C1779.5 78.5212 1779.13 75.7827 1779.29 73.0249C1772 68.3982 1766.44 61.1131 1764.4 52.0801C1760.26 33.767 1771.98 15.51 1790.44 11.3095C1790.44 11.3094 1790.45 11.3093 1790.45 11.3092C1793.95 10.522 1797.45 10.2962 1800.85 10.5649C1801.38 4.00152 1804.92 -2.49617 1810.56 -8.10884C1817.97 -15.4796 1829.03 -21.4402 1842.05 -24.3557C1855.06 -27.2985 1867.6 -26.6803 1877.45 -23.2275C1879.92 -22.3622 1882.21 -21.3023 1884.32 -20.0812C1890.44 -24.9386 1898.54 -28.8102 1907.78 -30.9151C1907.78 -30.9152 1907.78 -30.9152 1907.78 -30.9153C1918.95 -33.4306 1929.71 -32.9143 1938.17 -29.9697C1945.28 -27.4948 1950.83 -23.2368 1953.41 -17.5703C1970.18 -16.1536 1984.37 -5.68121 1987.85 9.71888C1990.38 20.9382 1986.63 32.2344 1978.82 40.8394C1978.08 45.5837 1975.66 50.4294 1971.95 54.9526C1965.84 62.4144 1956.21 69.1373 1944.47 73.4847Z" fill="white"/>
</g>
<g clip-path="url(#clip10_319_33)">
<path d="M1254.94 170.427C1244.34 163.763 1236.29 155.209 1231.84 146.651C1230.01 143.131 1228.79 139.587 1228.27 136.173C1218.1 139.391 1205.8 137.752 1194.88 131.354C1194.29 131.007 1193.7 130.645 1193.11 130.269C1191.36 129.142 1189.65 127.889 1187.99 126.512L1189.63 124.546C1203.65 136.222 1221.69 138.261 1233.67 130.907C1234.36 131.473 1235.06 132.044 1235.75 132.598C1234.16 133.637 1232.5 134.558 1230.73 135.283C1231.15 138.514 1232.28 141.952 1234.11 145.47C1238.3 153.525 1246.04 161.812 1256.3 168.26C1266.56 174.708 1277.38 178.085 1286.46 178.369C1290.31 178.49 1293.82 178.057 1296.85 177.095C1292.26 176.173 1287.69 174.499 1283.36 172.044C1282.76 171.704 1282.17 171.349 1281.58 170.979C1279.81 169.869 1278.08 168.628 1276.42 167.253L1277.26 166.236L1276.42 167.249C1271.03 162.768 1266.94 157.378 1264.16 151.622C1265.51 152.35 1266.85 153.052 1268.17 153.717C1270.67 157.929 1273.96 161.874 1278.05 165.281C1278.05 165.282 1278.06 165.283 1278.06 165.284C1279.63 166.586 1281.26 167.762 1282.93 168.811C1283.49 169.161 1284.05 169.496 1284.62 169.818C1300.47 178.83 1319.56 176.844 1329.96 164.331C1341.85 150.031 1338.12 127.13 1321.32 113.147C1319.06 111.278 1316.68 109.7 1314.24 108.35C1313.52 107.034 1312.77 105.71 1311.98 104.376C1315.81 106.087 1319.52 108.333 1322.95 111.175C1322.95 111.176 1322.95 111.176 1322.96 111.177C1326.02 113.724 1328.67 116.563 1330.91 119.596C1332.84 115.029 1332.73 109.323 1330.7 103.199C1328.06 95.2496 1322.2 86.7384 1313.73 79.6937C1305.27 72.6891 1295.85 68.4919 1287.56 67.3588C1285.97 67.1416 1284.44 67.0708 1282.96 67.0763C1282.16 66.257 1281.35 65.4398 1280.54 64.6247C1282.89 64.4261 1285.36 64.474 1287.9 64.8222C1288.54 64.9088 1289.18 65.0163 1289.82 65.1354C1289.51 63.1912 1289.02 61.1939 1288.35 59.1588C1285.27 49.7952 1278.4 39.809 1268.47 31.5656C1268.47 31.5651 1268.47 31.5646 1268.47 31.5641C1258.56 23.2974 1247.48 18.3782 1237.7 17.0716C1230.19 16.0686 1223.53 17.1839 1218.61 20.4213C1218.86 20.8834 1219.09 21.3573 1219.32 21.8284C1217.81 21.2158 1216.31 20.6336 1214.83 20.1148C1214.98 19.9903 1215.11 19.8551 1215.25 19.7344C1213.52 17.0413 1211.35 14.5531 1208.75 12.385C1195.22 1.17732 1175.26 2.87891 1164.15 16.2404C1158.96 22.4962 1156.67 30.1809 1157.06 37.7456C1160.58 35.9409 1164.69 34.9441 1169.09 34.7551C1170.03 34.7149 1170.98 34.7263 1171.94 34.7578C1171.88 35.5894 1171.84 36.4417 1171.84 37.3151C1170.95 37.2861 1170.06 37.2745 1169.2 37.3115C1161.23 37.6535 1154.67 40.7575 1151.1 46.4335C1147.53 52.1091 1147.59 59.3714 1150.73 66.6987C1153.88 74.0259 1160.14 81.324 1168.76 86.74C1177.35 92.1401 1186.64 94.6136 1194.61 94.2756C1195.61 94.2332 1196.59 94.1474 1197.54 94.019C1198.13 94.773 1198.73 95.5276 1199.33 96.2823C1197.84 96.558 1196.31 96.7652 1194.72 96.8324C1188.04 97.1155 1180.65 95.5791 1173.46 92.2156C1173.26 103.348 1178.87 115.592 1189.63 124.546L1187.99 126.512C1176.33 116.813 1170.25 103.24 1170.91 90.9404C1169.73 90.3122 1168.55 89.6348 1167.4 88.9064C1158.38 83.2375 1151.77 75.5971 1148.38 67.7092C1144.99 59.8213 1144.83 51.5919 1148.93 45.0716C1150.43 42.6951 1152.37 40.7315 1154.65 39.175C1153.88 30.5739 1156.27 21.7291 1162.19 14.6051C1174.18 0.163412 1195.8 -1.66671 1210.38 10.4135C1210.38 10.4143 1210.39 10.4151 1210.39 10.4158C1213.15 12.7157 1215.46 15.3519 1217.31 18.2098C1222.84 14.6289 1230.15 13.4808 1238.04 14.5346C1248.4 15.9185 1259.86 21.0524 1270.11 29.599C1280.37 38.1188 1287.52 48.4383 1290.79 58.357C1291.61 60.8427 1292.16 63.3072 1292.47 65.7171C1300.06 67.6149 1308.06 71.674 1315.36 77.7218C1315.36 77.7225 1315.37 77.7233 1315.37 77.724C1324.16 85.0442 1330.31 93.8877 1333.13 102.392C1335.5 109.54 1335.51 116.533 1332.59 122.032C1341.68 136.194 1342.02 153.824 1331.93 165.966C1324.58 174.812 1313.34 178.723 1301.76 177.77C1297.54 180.076 1292.23 181.11 1286.38 180.927C1276.74 180.625 1265.54 177.091 1254.94 170.427Z" fill="white"/>
</g>
<g clip-path="url(#clip11_319_33)">
<path d="M129.234 45.8556C117.465 50.1391 105.776 51.2399 96.2859 49.5058C92.3817 48.7924 88.8401 47.5749 85.8228 45.8926C82.1238 55.8961 73.2797 64.6053 61.5284 69.3009C60.8895 69.5562 60.2421 69.7995 59.5865 70.0308C57.6199 70.7245 55.5801 71.3079 53.4775 71.7688L52.9297 69.2693C70.7546 65.3618 83.4341 52.37 84.9775 38.3988C85.8502 38.1993 86.7257 38.0027 87.5884 37.7948C87.4336 39.6876 87.1397 41.5663 86.6288 43.4059C89.4387 45.0555 92.8449 46.2756 96.746 46.9885C105.679 48.6206 116.971 47.5955 128.359 43.4508C139.746 39.3062 149.054 32.8332 154.848 25.8411C157.306 22.8743 159.116 19.8399 160.218 16.8544C156.671 19.9153 152.545 22.4962 147.952 24.4063C147.315 24.6712 146.67 24.9234 146.015 25.1626C144.053 25.8799 142.014 26.479 139.91 26.9461L139.625 25.6567L139.906 26.9456C133.062 28.4482 126.294 28.3741 120.045 27.0345C121.446 26.4181 122.821 25.7922 124.161 25.1534C129.02 25.7637 134.151 25.5899 139.355 24.4478C139.356 24.4474 139.357 24.4467 139.359 24.4464C141.352 24.0036 143.281 23.4382 145.135 22.7622C145.753 22.5369 146.363 22.2993 146.964 22.0499C163.809 15.061 173.956 -1.23142 170.458 -17.1213C166.459 -35.2805 146.092 -46.3932 124.74 -41.707C121.879 -41.0718 119.172 -40.1595 116.605 -39.0565C115.126 -39.2967 113.622 -39.5185 112.086 -39.7174C115.788 -41.6912 119.836 -43.24 124.185 -44.2055C124.186 -44.206 124.187 -44.2065 124.189 -44.2069C128.078 -45.061 131.949 -45.4164 135.715 -45.319C133.296 -49.6473 128.724 -53.0635 122.641 -55.2172C114.746 -58.0125 104.426 -58.6035 93.6687 -56.2419C82.948 -53.8621 73.849 -48.994 67.868 -43.1448C66.7218 -42.0239 65.7309 -40.8642 64.8245 -39.6891C63.6877 -39.5615 62.5463 -39.4245 61.4011 -39.2792C62.6897 -41.2609 64.24 -43.1776 66.0779 -44.9751C66.5349 -45.422 67.0121 -45.8608 67.5002 -46.2948C65.7754 -47.2438 63.9012 -48.087 61.8829 -48.8064C52.5964 -52.1164 40.4947 -52.8187 27.8944 -50.039C27.8935 -50.0387 27.8926 -50.0384 27.8917 -50.0381C15.2835 -47.2865 4.60155 -41.5582 -2.43038 -34.6393C-7.82991 -29.3262 -11.0386 -23.3799 -11.5013 -17.5088C-10.9809 -17.4255 -10.4691 -17.3117 -9.95519 -17.2052C-11.3678 -16.386 -12.748 -15.5588 -14.0604 -14.7156C-14.072 -14.9034 -14.0974 -15.0911 -14.1043 -15.279C-17.2961 -15.5608 -20.589 -15.3784 -23.8973 -14.6548C-41.0481 -10.8507 -51.957 5.95887 -48.219 22.9232C-46.4681 30.8648 -41.8016 37.3835 -35.5908 41.7195C-34.8585 37.8361 -33.1224 33.9778 -30.5707 30.3867C-30.0279 29.6227 -29.4324 28.8751 -28.8174 28.135C-28.2032 28.7 -27.5529 29.2521 -26.8653 29.7907C-27.4342 30.4755 -27.9854 31.1658 -28.4848 31.8686C-33.104 38.3696 -34.683 45.4595 -32.3901 51.7591C-30.0975 58.0581 -24.331 62.4731 -16.6138 64.4838C-8.89667 66.4946 0.706174 66.0316 10.271 62.5502C19.8078 59.0791 27.4615 53.2618 32.0882 46.7577C32.6674 45.9435 33.1988 45.1199 33.6812 44.2898C34.6353 44.2909 35.6036 44.2747 36.569 44.2623C35.8686 45.613 35.0931 46.9484 34.1736 48.2411C30.2957 53.6922 24.5473 58.585 17.4782 62.1997C26.1462 69.1887 39.2555 72.2725 52.9297 69.2693L53.4775 71.7688C38.6654 75.0219 24.2158 71.4953 14.9061 63.4312C13.6861 63.9773 12.4323 64.4866 11.146 64.9548C1.13454 68.5987 -8.95135 69.1253 -17.259 66.9607C-25.5666 64.7961 -32.1612 59.8707 -34.7951 52.6341C-35.7551 49.9966 -36.112 47.2561 -35.9407 44.4992C-43.2076 39.833 -48.7243 32.5178 -50.718 23.4739C-54.7586 5.13861 -42.9373 -13.0546 -24.4513 -17.1548C-24.4502 -17.1549 -24.4492 -17.1549 -24.4481 -17.155C-20.9384 -17.9232 -17.4389 -18.13 -14.0425 -17.8429C-13.4792 -24.4033 -9.8985 -30.8816 -4.22572 -36.4636C3.22392 -43.794 14.3118 -49.6945 27.3468 -52.5393C40.3691 -55.4114 52.9053 -54.7251 62.7423 -51.2189C65.2075 -50.3403 67.4954 -49.2679 69.5897 -48.0354C75.7424 -52.8595 83.8578 -56.6871 93.1142 -58.7418C93.1151 -58.7419 93.1161 -58.7419 93.1171 -58.742C104.296 -61.1966 115.049 -60.622 123.496 -57.6314C130.595 -55.118 136.119 -50.8299 138.669 -45.1495C155.434 -43.6418 169.563 -33.0925 172.958 -17.6738C175.432 -6.4409 171.622 4.83477 163.76 13.3973C162.996 18.1375 160.55 22.97 156.819 27.473C150.664 34.9015 141.003 41.5721 129.234 45.8556Z" fill="white"/>
</g>
<g clip-path="url(#clip12_319_33)">
<path d="M687.225 141.669C675.127 138.428 664.921 132.625 658.142 125.761C655.353 122.937 653.15 119.909 651.643 116.8C642.875 122.873 630.635 124.934 618.316 122.04C617.646 121.883 616.976 121.711 616.307 121.524C614.298 120.964 612.292 120.272 610.306 119.444L611.291 117.082C628.133 124.105 645.971 120.736 655.249 110.177C656.078 110.514 656.908 110.855 657.734 111.179C656.522 112.641 655.203 114.011 653.73 115.225C655.085 118.188 657.176 121.141 659.962 123.963C666.343 130.423 676.182 136.061 687.887 139.197C699.592 142.334 710.93 142.37 719.686 139.966C723.402 138.946 726.625 137.498 729.24 135.685C724.579 136.158 719.719 135.905 714.861 134.835C714.187 134.687 713.513 134.523 712.84 134.344C710.821 133.806 708.808 133.127 706.816 132.303L707.322 131.083L706.813 132.3C700.345 129.606 694.843 125.663 690.493 120.981C691.994 121.28 693.48 121.556 694.943 121.801C698.574 125.088 702.877 127.889 707.794 129.938C707.796 129.939 707.797 129.939 707.798 129.939C709.685 130.72 711.589 131.363 713.496 131.873C714.131 132.043 714.767 132.198 715.403 132.338C733.21 136.275 750.867 128.749 757.115 113.726C764.256 96.5579 753.946 75.7729 733.768 67.3647C731.06 66.2441 728.319 65.4385 725.584 64.8698C724.51 63.8246 723.405 62.78 722.261 61.7365C726.425 62.2426 730.63 63.2959 734.746 64.9994C734.747 64.9998 734.748 65.0001 734.75 65.0005C738.426 66.5318 741.801 68.4611 744.829 70.7007C745.33 65.7676 743.545 60.3471 739.797 55.0938C734.933 48.2756 726.819 41.8722 716.652 37.6364C706.505 33.4367 696.26 32.2054 688.005 33.5663C686.423 33.8271 684.947 34.2086 683.53 34.6514C682.526 34.1038 681.512 33.5614 680.491 33.0235C682.683 32.1393 685.052 31.4584 687.589 31.0402C688.219 30.9363 688.862 30.8505 689.511 30.7749C688.642 29.0083 687.591 27.2426 686.35 25.4956C680.641 17.4577 671.131 9.94119 659.215 4.99091C659.214 4.99067 659.213 4.99043 659.212 4.99019C647.306 0.0123891 635.27 -1.42217 625.542 0.212078C618.071 1.4673 612.032 4.49778 608.286 9.04166C608.664 9.40841 609.018 9.7952 609.378 10.1772C607.751 10.038 606.146 9.92396 604.587 9.86194C604.685 9.70138 604.772 9.53312 604.874 9.37523C602.421 7.31367 599.619 5.57429 596.494 4.26953C580.263 -2.45167 561.686 5.06085 555.017 21.1012C551.897 28.6109 551.98 36.6272 554.581 43.7415C557.408 40.9805 561.043 38.8157 565.193 37.3376C566.076 37.0231 566.993 36.7523 567.921 36.4988C568.1 37.3139 568.316 38.1392 568.57 38.9748C567.711 39.2094 566.864 39.4587 566.052 39.748C558.539 42.4238 553.179 47.3259 551.444 53.8013C549.709 60.2761 551.9 67.2002 557.069 73.2737C562.237 79.3472 570.369 84.4759 580.2 87.1103C590.003 89.737 599.61 89.3618 607.13 86.6876C608.072 86.3529 608.979 85.983 609.851 85.5798C610.632 86.1279 611.434 86.67 612.232 87.2136C610.884 87.9183 609.482 88.5674 607.988 89.0989C601.684 91.3399 594.169 92.0507 586.305 90.9571C589.397 101.654 598.367 111.699 611.291 117.082L610.306 119.444C596.306 113.613 586.493 102.436 583.492 90.4905C582.179 90.2381 580.86 89.9361 579.538 89.5819C569.247 86.8244 560.683 81.4708 555.119 74.9326C549.556 68.3944 546.979 60.5772 548.972 53.1386C549.699 50.4275 550.978 47.9778 552.7 45.8178C549.423 37.8274 549.1 28.6709 552.654 20.119C559.861 2.78197 579.98 -5.34055 597.475 1.90388C597.475 1.90442 597.476 1.90497 597.477 1.90551C600.793 3.28939 603.778 5.12716 606.396 7.31044C610.62 2.25959 617.269 -0.993354 625.117 -2.31206C635.424 -4.04383 647.891 -2.51754 660.201 2.62877C672.515 7.74532 682.391 15.498 688.438 24.0124C689.953 26.1461 691.212 28.3368 692.221 30.5476C700.028 30.125 708.871 31.6445 717.632 35.2706C717.633 35.2711 717.633 35.2716 717.634 35.2721C728.199 39.6732 736.679 46.3119 741.882 53.6064C746.256 59.7371 748.322 66.4184 747.152 72.5339C760.02 83.3847 765.543 100.131 759.481 114.708C755.064 125.328 745.475 132.379 734.124 134.884C730.78 138.329 726.004 140.884 720.365 142.433C711.062 144.988 699.322 144.911 687.225 141.669Z" fill="white"/>
</g>
<g clip-path="url(#clip13_319_33)">
<path d="M341.619 94.7124C332.763 85.8565 326.826 75.7278 324.387 66.394C323.383 62.5541 322.99 58.8298 323.239 55.3842C312.61 56.2594 300.979 51.9246 291.757 43.2587C291.256 42.7876 290.762 42.3037 290.275 41.8073C288.815 40.3181 287.424 38.716 286.118 37.0051L288.152 35.4524C299.226 49.9558 316.359 55.9568 329.674 51.4511C330.224 52.1577 330.772 52.8681 331.325 53.5621C329.544 54.2217 327.717 54.7494 325.834 55.0638C325.526 58.3075 325.86 61.9102 326.863 65.7471C329.158 74.5326 334.86 84.334 343.429 92.9028C351.998 101.472 361.798 107.172 370.584 109.468C374.311 110.442 377.826 110.8 380.998 110.537C376.725 108.616 372.642 105.968 368.97 102.612C368.46 102.147 367.959 101.668 367.466 101.176C365.986 99.7007 364.582 98.1066 363.269 96.3969L364.317 95.5932L363.268 96.3926C359.014 90.8256 356.22 84.6597 354.794 78.4304C355.944 79.4393 357.093 80.4213 358.238 81.3656C359.738 86.0273 362.065 90.6045 365.299 94.8377C365.3 94.8388 365.301 94.8396 365.302 94.8407C366.545 96.4603 367.873 97.9691 369.269 99.364C369.735 99.8289 370.208 100.281 370.688 100.721C384.141 113.034 403.195 115.345 416.118 105.459C430.886 94.1603 432.35 71.0053 419.079 53.6342C417.294 51.3099 415.323 49.2418 413.239 47.3817C412.831 45.9395 412.397 44.4823 411.928 43.0068C415.281 45.5272 418.396 48.5415 421.109 52.0749C421.11 52.0759 421.111 52.0769 421.112 52.0779C423.529 55.242 425.487 58.6003 426.991 62.0542C429.891 58.0325 431.055 52.4455 430.436 46.0222C429.633 37.6855 425.807 28.0826 419.121 19.3311C412.433 10.6206 404.176 4.43141 396.347 1.48281C394.846 0.917743 393.377 0.509775 391.929 0.184918C391.333 -0.791452 390.726 -1.768 390.11 -2.74454C392.451 -2.41414 394.843 -1.81913 397.249 -0.913077C397.847 -0.687753 398.447 -0.440775 399.046 -0.181813C399.177 -2.146 399.149 -4.20101 398.949 -6.33423C398.024 -16.1496 393.546 -27.4142 385.701 -37.6592C385.701 -37.6599 385.7 -37.6606 385.699 -37.6612C377.877 -47.9253 368.171 -55.1855 358.929 -58.6346C351.831 -61.2828 345.086 -61.6778 339.57 -59.616C339.714 -59.1091 339.827 -58.5971 339.948 -58.0864C338.609 -59.0204 337.276 -59.9218 335.957 -60.7548C336.122 -60.8447 336.281 -60.947 336.449 -61.0327C335.355 -64.0445 333.798 -66.9519 331.744 -69.6444C321.048 -83.5807 301.203 -86.3634 287.408 -75.8062C280.951 -70.863 277.015 -63.8789 275.71 -56.4175C279.539 -57.395 283.77 -57.4521 288.103 -56.6572C289.024 -56.4881 289.954 -56.2644 290.884 -56.0198C290.632 -55.2244 290.406 -54.4016 290.209 -53.5508C289.348 -53.7771 288.489 -53.9849 287.641 -54.1405C279.797 -55.5794 272.704 -54.0141 267.964 -49.2738C263.224 -44.5339 261.659 -37.4419 263.099 -29.5979C264.538 -21.754 269.016 -13.2466 276.213 -6.04914C283.389 1.12714 291.896 5.60533 299.746 7.04973C300.729 7.23055 301.7 7.36409 302.656 7.45055C303.058 8.31565 303.482 9.18639 303.902 10.0561C302.381 9.99214 300.843 9.85373 299.283 9.56667C292.704 8.35579 285.84 5.21382 279.577 0.334686C276.906 11.1442 279.651 24.3286 288.152 35.4524L286.118 37.0051C276.91 24.9557 273.999 10.3695 277.373 -1.47605C276.363 -2.35094 275.371 -3.272 274.404 -4.23989C266.87 -11.7734 262.13 -20.6918 260.581 -29.1358C259.032 -37.5799 260.709 -45.6382 266.154 -51.0836C268.139 -53.0683 270.472 -54.55 273.043 -55.5599C274.201 -64.1179 278.499 -72.2093 285.853 -77.8383C300.763 -89.2492 322.247 -86.2242 333.776 -71.203C333.777 -71.2021 333.777 -71.2012 333.778 -71.2002C335.957 -68.344 337.623 -65.2598 338.799 -62.0603C344.982 -64.3223 352.367 -63.8149 359.823 -61.0327C369.615 -57.379 379.649 -49.8237 387.736 -39.2121C395.843 -28.6237 400.519 -16.9721 401.498 -6.57492C401.744 -3.96933 401.739 -1.44262 401.507 0.976359C408.479 4.5138 415.378 10.2513 421.152 17.772C421.152 17.7729 421.153 17.7738 421.153 17.7746C428.102 26.8685 432.126 36.8575 432.985 45.7765C433.708 53.2727 432.156 60.0917 428.085 64.803C433.804 80.6341 430.215 97.8983 417.675 107.491C408.54 114.48 396.711 115.793 385.628 112.286C381.009 113.597 375.596 113.422 369.938 111.944C360.604 109.505 350.475 103.568 341.619 94.7124Z" fill="white"/>
</g>
<g clip-path="url(#clip14_319_33)">
<path d="M1654.87 38.6355C1646.02 47.4914 1635.89 53.4291 1626.56 55.8682C1622.72 56.8716 1618.99 57.2649 1615.55 57.0154C1616.42 67.6449 1612.09 79.2758 1603.42 88.4978C1602.95 88.9991 1602.47 89.4933 1601.97 89.98C1600.48 91.4398 1598.88 92.8306 1597.17 94.1369L1595.61 92.1031C1610.12 81.0286 1616.12 63.8954 1611.61 50.581C1612.32 50.0313 1613.03 49.4832 1613.72 48.9301C1614.38 50.711 1614.91 52.5379 1615.23 54.421C1618.47 54.7286 1622.07 54.3949 1625.91 53.3922C1634.69 51.0964 1644.5 45.3949 1653.06 36.826C1661.63 28.2571 1667.33 18.4568 1669.63 9.67132C1670.6 5.94361 1670.96 2.4286 1670.7 -0.743143C1668.78 3.53002 1666.13 7.61292 1662.77 11.2851C1662.31 11.7944 1661.83 12.296 1661.34 12.7892C1659.86 14.2688 1658.27 15.6731 1656.56 16.9857L1655.76 15.9378L1656.55 16.9871C1650.99 21.2411 1644.82 24.0345 1638.59 25.4611C1639.6 24.3106 1640.58 23.1621 1641.53 22.017C1646.19 20.5165 1650.77 18.1903 1655 14.9562C1655 14.9553 1655 14.9541 1655 14.9532C1656.62 13.7095 1658.13 12.382 1659.53 10.9857C1659.99 10.5204 1660.44 10.0473 1660.88 9.56716C1673.2 -3.88585 1675.51 -22.9403 1665.62 -35.8627C1654.32 -50.6308 1631.17 -52.0949 1613.8 -38.824C1611.47 -37.0393 1609.4 -35.0683 1607.54 -32.984C1606.1 -32.5764 1604.64 -32.1417 1603.17 -31.6732C1605.69 -35.0262 1608.7 -38.1407 1612.24 -40.8537C1612.24 -40.8547 1612.24 -40.8557 1612.24 -40.8567C1615.4 -43.2745 1618.76 -45.2326 1622.22 -46.7358C1618.19 -49.6361 1612.61 -50.8002 1606.18 -50.1814C1597.85 -49.3782 1588.24 -45.5523 1579.49 -38.8658C1570.78 -32.1782 1564.59 -23.9208 1561.64 -16.0919C1561.08 -14.5916 1560.67 -13.1218 1560.35 -11.6737C1559.37 -11.0776 1558.39 -10.4711 1557.42 -9.85536C1557.75 -12.1961 1558.34 -14.5884 1559.25 -16.9941C1559.47 -17.5923 1559.72 -18.1917 1559.98 -18.7913C1558.02 -18.9225 1555.96 -18.8946 1553.83 -18.6936C1544.01 -17.7688 1532.75 -13.291 1522.5 -5.44659C1522.5 -5.44592 1522.5 -5.44526 1522.5 -5.4446C1512.24 2.37767 1504.98 12.0837 1501.53 21.3261C1498.88 28.4234 1498.48 35.1686 1500.55 40.6851C1501.05 40.5407 1501.56 40.4275 1502.08 40.3069C1501.14 41.6463 1500.24 42.9793 1499.41 44.2982C1499.32 44.1328 1499.21 43.9735 1499.13 43.8061C1496.12 44.8996 1493.21 46.4565 1490.52 48.5106C1476.58 59.2065 1473.8 79.0514 1484.36 92.8466C1489.3 99.3041 1496.28 103.24 1503.74 104.545C1502.77 100.716 1502.71 96.4853 1503.5 92.1523C1503.67 91.2304 1503.9 90.3013 1504.14 89.3706C1504.94 89.6231 1505.76 89.8486 1506.61 90.0462C1506.38 90.9072 1506.18 91.7658 1506.02 92.6138C1504.58 100.458 1506.15 107.551 1510.89 112.291C1515.63 117.031 1522.72 118.595 1530.56 117.156C1538.41 115.717 1546.92 111.239 1554.11 104.042C1561.29 96.8656 1565.77 88.3587 1567.21 80.5087C1567.39 79.5259 1567.53 78.5549 1567.61 77.5987C1568.48 77.1966 1569.35 76.7726 1570.22 76.3534C1570.15 77.8736 1570.02 79.4115 1569.73 80.9717C1568.52 87.551 1565.38 94.4148 1560.5 100.678C1571.31 103.349 1584.49 100.604 1595.61 92.1031L1597.17 94.1369C1585.12 103.345 1570.53 106.256 1558.69 102.881C1557.81 103.892 1556.89 104.883 1555.92 105.851C1548.39 113.385 1539.47 118.125 1531.03 119.674C1522.58 121.223 1514.52 119.546 1509.08 114.101C1507.09 112.116 1505.61 109.783 1504.6 107.212C1496.04 106.054 1487.95 101.756 1482.32 94.4017C1470.91 79.492 1473.94 58.0075 1488.96 46.4789C1488.96 46.4784 1488.96 46.4779 1488.96 46.4773C1491.82 44.2979 1494.9 42.6315 1498.1 41.4563C1495.84 35.2725 1496.35 27.8879 1499.13 20.4315C1502.78 10.6395 1510.34 0.605909 1520.95 -7.48115C1531.54 -15.5877 1543.19 -20.2637 1553.59 -21.2433C1556.19 -21.4888 1558.72 -21.4838 1561.14 -21.2519C1564.68 -28.2242 1570.41 -35.1229 1577.93 -40.897C1577.93 -40.8975 1577.94 -40.898 1577.94 -40.8984C1587.03 -47.8474 1597.02 -51.8713 1605.94 -52.7306C1613.43 -53.4528 1620.25 -51.9013 1624.96 -47.8305C1640.8 -53.5491 1658.06 -49.9597 1667.65 -37.4204C1674.64 -28.2852 1675.95 -16.4558 1672.45 -5.37315C1673.76 -0.754119 1673.58 4.65937 1672.11 10.3174C1669.67 19.6512 1663.73 29.7796 1654.87 38.6355Z" fill="white"/>
</g>
<g clip-path="url(#clip15_319_33)">
<path d="M1347.55 358C1335.02 358 1323.66 355.037 1315.34 350.161C1311.91 348.156 1309 345.8 1306.74 343.187C1299.84 351.322 1288.55 356.482 1275.9 356.875C1275.22 356.896 1274.52 356.903 1273.83 356.896C1271.74 356.876 1269.63 356.726 1267.49 356.44L1267.83 353.904C1285.92 356.329 1302.28 348.457 1308.51 335.856C1309.4 335.967 1310.29 336.082 1311.17 336.182C1310.38 337.907 1309.46 339.572 1308.35 341.126C1310.42 343.637 1313.21 345.949 1316.63 347.953C1324.46 352.542 1335.43 355.441 1347.55 355.441C1359.66 355.441 1370.62 352.542 1378.46 347.953C1381.78 346.006 1384.52 343.774 1386.58 341.345C1382.2 343.008 1377.44 344.022 1372.47 344.246C1371.78 344.277 1371.09 344.294 1370.39 344.295C1368.3 344.297 1366.18 344.163 1364.05 343.882L1364.22 342.573L1364.04 343.88C1357.1 342.952 1350.76 340.567 1345.35 337.171C1346.87 337.071 1348.38 336.953 1349.86 336.811C1354.22 339.047 1359.1 340.638 1364.38 341.345C1364.38 341.345 1364.38 341.345 1364.38 341.345C1366.41 341.611 1368.41 341.739 1370.39 341.738C1371.04 341.738 1371.7 341.723 1372.35 341.694C1390.57 340.888 1405.68 329.049 1407.82 312.92C1410.28 294.489 1394.94 277.08 1373.27 274.181C1370.37 273.8 1367.51 273.731 1364.72 273.89C1363.41 273.158 1362.07 272.435 1360.7 271.723C1364.85 271.134 1369.19 271.063 1373.6 271.643C1373.6 271.643 1373.61 271.643 1373.61 271.643C1377.55 272.171 1381.31 273.161 1384.82 274.541C1384.03 269.646 1380.9 264.872 1375.92 260.768C1369.46 255.441 1359.96 251.356 1349.04 249.896C1338.16 248.465 1327.94 249.928 1320.32 253.379C1318.86 254.04 1317.53 254.791 1316.28 255.585C1315.17 255.316 1314.05 255.054 1312.92 254.799C1314.81 253.378 1316.92 252.107 1319.26 251.046C1319.85 250.783 1320.44 250.534 1321.05 250.293C1319.76 248.811 1318.28 247.378 1316.63 246.011C1309.04 239.725 1297.91 234.926 1285.12 233.228C1285.11 233.228 1285.11 233.228 1285.11 233.228C1272.32 231.502 1260.33 233.231 1251.35 237.328C1244.46 240.474 1239.41 244.964 1236.97 250.323C1237.43 250.579 1237.87 250.861 1238.32 251.137C1236.71 251.423 1235.13 251.729 1233.61 252.072C1233.66 251.892 1233.7 251.707 1233.76 251.528C1230.86 250.171 1227.7 249.216 1224.34 248.765C1206.93 246.474 1190.93 258.538 1188.64 275.758C1187.57 283.82 1189.72 291.541 1194.08 297.74C1196.09 294.341 1199.04 291.309 1202.67 288.808C1203.44 288.275 1204.26 287.776 1205.09 287.291C1205.47 288.032 1205.89 288.774 1206.35 289.515C1205.59 289.964 1204.83 290.424 1204.12 290.914C1197.56 295.443 1193.65 301.565 1193.65 308.269C1193.65 314.972 1197.56 321.093 1204.12 325.622C1210.69 330.151 1219.87 333 1230.05 333C1240.2 333 1249.38 330.151 1255.95 325.622C1256.77 325.055 1257.55 324.463 1258.29 323.848C1259.19 324.175 1260.1 324.491 1261.01 324.81C1259.89 325.839 1258.71 326.829 1257.4 327.729C1251.89 331.525 1244.82 334.157 1236.94 335.136C1242.69 344.668 1253.96 352.049 1267.83 353.904L1267.49 356.44C1252.46 354.431 1240.09 346.175 1234.1 335.413C1232.77 335.509 1231.42 335.559 1230.05 335.559C1219.39 335.559 1209.73 332.604 1202.67 327.729C1195.6 322.853 1191.09 315.97 1191.09 308.269C1191.09 305.462 1191.69 302.764 1192.8 300.232C1187.56 293.362 1184.88 284.601 1186.1 275.421C1188.57 256.809 1205.91 243.757 1224.68 246.226C1224.68 246.226 1224.68 246.227 1224.68 246.227C1228.24 246.706 1231.6 247.708 1234.7 249.14C1237.47 243.168 1243.05 238.305 1250.29 234.999C1259.8 230.659 1272.23 228.907 1285.46 230.692C1298.68 232.447 1310.22 237.379 1318.27 244.038C1320.28 245.707 1322.06 247.497 1323.61 249.372C1331.04 246.943 1339.98 246.122 1349.38 247.357C1349.38 247.357 1349.38 247.358 1349.38 247.358C1360.73 248.874 1370.63 253.092 1377.55 258.792C1383.36 263.581 1387.08 269.5 1387.54 275.71C1402.77 282.861 1412.44 297.606 1410.36 313.257C1408.84 324.658 1401.41 333.951 1391.09 339.308C1388.75 343.501 1384.8 347.205 1379.75 350.161C1371.43 355.036 1360.07 358 1347.55 358Z" fill="white"/>
</g>
<g clip-path="url(#clip16_319_33)">
<path d="M286.174 220.515C297.92 216.168 309.602 215.004 319.102 216.686C323.01 217.379 326.558 218.577 329.584 220.243C333.229 210.219 342.026 201.462 353.751 196.703C354.389 196.444 355.035 196.197 355.689 195.962C357.652 195.258 359.689 194.664 361.789 194.191L362.35 196.688C344.547 200.692 331.938 213.752 330.47 227.732C329.599 227.936 328.724 228.137 327.863 228.35C328.007 226.456 328.291 224.576 328.792 222.734C325.973 221.099 322.56 219.898 318.655 219.206C309.714 217.622 298.427 218.709 287.062 222.915C275.698 227.122 266.425 233.645 260.669 240.669C258.227 243.649 256.434 246.693 255.347 249.684C258.878 246.604 262.99 244.001 267.572 242.066C268.208 241.798 268.852 241.542 269.505 241.299C271.464 240.571 273.499 239.961 275.601 239.482L275.893 240.77L275.605 239.483C282.44 237.943 289.209 237.981 295.465 239.286C294.068 239.91 292.696 240.544 291.359 241.19C286.497 240.606 281.367 240.807 276.17 241.978C276.168 241.978 276.167 241.979 276.166 241.979C274.175 242.433 272.249 243.009 270.399 243.695C269.782 243.923 269.173 244.164 268.573 244.417C251.767 251.497 241.708 267.844 245.293 283.715C249.39 301.852 269.817 312.854 291.143 308.052C294 307.401 296.703 306.475 299.263 305.358C300.744 305.59 302.249 305.803 303.786 305.994C300.095 307.988 296.056 309.559 291.712 310.548C291.711 310.548 291.709 310.549 291.708 310.549C287.823 311.424 283.954 311.801 280.188 311.724C282.631 316.039 287.221 319.43 293.315 321.551C301.225 324.303 311.548 324.838 322.293 322.418C333.001 319.98 342.073 315.063 348.022 309.181C349.162 308.054 350.147 306.889 351.047 305.709C352.183 305.575 353.324 305.432 354.468 305.281C353.19 307.269 351.65 309.194 349.822 311.002C349.368 311.451 348.893 311.893 348.407 312.329C350.137 313.269 352.016 314.102 354.038 314.81C363.342 318.07 375.448 318.706 388.033 315.858C388.034 315.858 388.034 315.858 388.035 315.857C400.628 313.037 411.279 307.251 418.273 300.294C423.644 294.952 426.82 288.988 427.251 283.115C426.73 283.034 426.218 282.923 425.703 282.82C427.112 281.993 428.487 281.158 429.795 280.308C429.808 280.496 429.834 280.683 429.842 280.871C433.035 281.135 436.327 280.935 439.631 280.194C456.761 276.296 467.579 259.428 463.749 242.484C461.955 234.552 457.253 228.059 451.019 223.757C450.308 227.644 448.592 231.512 446.06 235.117C445.522 235.883 444.93 236.634 444.319 237.378C443.702 236.816 443.049 236.268 442.358 235.733C442.923 235.045 443.471 234.352 443.966 233.646C448.55 227.12 450.091 220.022 447.764 213.735C445.437 207.448 439.647 203.065 431.919 201.096C424.191 199.127 414.59 199.642 405.045 203.175C395.527 206.698 387.905 212.557 383.313 219.086C382.739 219.903 382.212 220.73 381.734 221.562C380.78 221.566 379.812 221.588 378.846 221.606C379.539 220.251 380.308 218.912 381.22 217.614C385.068 212.142 390.79 207.218 397.839 203.565C389.134 196.623 376.008 193.61 362.35 196.688L361.789 194.191C376.583 190.858 391.051 194.306 400.405 202.319C401.622 201.767 402.873 201.251 404.157 200.775C414.148 197.077 424.231 196.496 432.55 198.615C440.87 200.735 447.491 205.624 450.164 212.847C451.138 215.479 451.51 218.217 451.354 220.975C458.646 225.602 464.202 232.887 466.245 241.92C470.385 260.233 458.662 278.49 440.199 282.691C440.198 282.691 440.197 282.691 440.196 282.691C436.69 283.478 433.192 283.704 429.794 283.435C429.266 289.998 425.721 296.496 420.079 302.109C412.669 309.48 401.613 315.44 388.594 318.356C375.587 321.298 363.048 320.68 353.192 317.227C350.722 316.362 348.428 315.302 346.327 314.081C340.201 318.939 332.106 322.81 322.861 324.915C322.86 324.915 322.859 324.915 322.858 324.915C311.693 327.431 300.936 326.914 292.474 323.97C285.361 321.495 279.813 317.237 277.233 311.57C260.461 310.154 246.274 299.681 242.795 284.281C240.261 273.062 244.01 261.766 251.824 253.161C252.563 248.416 254.983 243.571 258.689 239.047C264.804 231.586 274.429 224.863 286.174 220.515Z" fill="white"/>
</g>
<g clip-path="url(#clip17_319_33)">
<path d="M975.703 123.573C986.307 130.237 994.349 138.791 998.803 147.349C1000.64 150.869 1001.85 154.413 1002.37 157.827C1012.54 154.609 1024.84 156.248 1035.76 162.646C1036.36 162.993 1036.94 163.355 1037.53 163.731C1039.28 164.858 1041 166.111 1042.65 167.488L1041.01 169.454C1026.99 157.778 1008.95 155.739 996.973 163.093C996.28 162.527 995.587 161.956 994.893 161.402C996.483 160.363 998.147 159.442 999.913 158.717C999.491 155.486 998.364 152.048 996.533 148.53C992.341 140.475 984.601 132.188 974.341 125.74C964.081 119.292 953.258 115.915 944.182 115.631C940.331 115.51 936.824 115.943 933.79 116.905C938.384 117.827 942.954 119.501 947.28 121.956C947.88 122.296 948.476 122.651 949.066 123.021C950.837 124.131 952.561 125.372 954.221 126.747L953.378 127.764L954.223 126.751C959.609 131.232 963.704 136.622 966.48 142.378C965.134 141.65 963.796 140.948 962.47 140.283C959.97 136.071 956.684 132.126 952.589 128.719C952.588 128.718 952.586 128.717 952.585 128.716C951.012 127.414 949.383 126.238 947.711 125.189C947.154 124.839 946.592 124.504 946.026 124.182C930.171 115.17 911.08 117.156 900.681 129.669C888.796 143.969 892.519 166.87 909.322 180.853C911.579 182.722 913.961 184.3 916.407 185.65C917.125 186.966 917.873 188.29 918.658 189.624C914.828 187.913 911.121 185.667 907.69 182.825C907.689 182.824 907.688 182.824 907.687 182.823C904.626 180.276 901.969 177.437 899.736 174.404C897.803 178.971 897.911 184.677 899.943 190.801C902.58 198.75 908.447 207.262 916.912 214.306C925.37 221.311 934.797 225.508 943.086 226.641C944.674 226.858 946.198 226.929 947.682 226.924C948.481 227.743 949.289 228.56 950.107 229.375C947.751 229.574 945.286 229.526 942.739 229.178C942.106 229.091 941.467 228.984 940.825 228.865C941.134 230.809 941.618 232.806 942.288 234.841C945.374 244.205 952.245 254.191 962.172 262.434C962.173 262.435 962.174 262.435 962.174 262.436C972.084 270.703 983.162 275.622 992.94 276.928C1000.45 277.931 1007.11 276.816 1012.03 273.579C1011.78 273.117 1011.55 272.643 1011.32 272.172C1012.84 272.784 1014.34 273.366 1015.81 273.885C1015.67 274.01 1015.53 274.145 1015.39 274.266C1017.13 276.959 1019.29 279.447 1021.89 281.615C1035.42 292.823 1055.39 291.121 1066.49 277.76C1071.68 271.504 1073.97 263.819 1073.58 256.254C1070.06 258.059 1065.95 259.056 1061.55 259.245C1060.62 259.285 1059.66 259.274 1058.7 259.242C1058.77 258.411 1058.8 257.558 1058.81 256.685C1059.7 256.714 1060.58 256.726 1061.44 256.689C1069.41 256.346 1075.98 253.243 1079.54 247.566C1083.11 241.891 1083.06 234.629 1079.91 227.301C1076.76 219.974 1070.5 212.676 1061.89 207.26C1053.29 201.86 1044 199.386 1036.03 199.724C1035.03 199.767 1034.05 199.853 1033.1 199.981C1032.52 199.227 1031.91 198.472 1031.31 197.718C1032.8 197.442 1034.33 197.235 1035.92 197.168C1042.6 196.885 1049.99 198.421 1057.19 201.784C1057.39 190.652 1051.78 178.408 1041.01 169.454L1042.65 167.488C1054.31 177.187 1060.39 190.76 1059.74 203.06C1060.92 203.688 1062.09 204.365 1063.25 205.094C1072.27 210.762 1078.87 218.403 1082.26 226.291C1085.65 234.179 1085.81 242.408 1081.71 248.928C1080.22 251.305 1078.27 253.268 1075.99 254.825C1076.76 263.426 1074.37 272.271 1068.46 279.395C1056.46 293.837 1034.84 295.667 1020.26 283.587C1020.26 283.586 1020.26 283.585 1020.26 283.584C1017.5 281.284 1015.19 278.648 1013.33 275.79C1007.8 279.371 1000.49 280.519 992.601 279.465C982.242 278.082 970.779 272.948 960.534 264.401C950.275 255.881 943.124 245.562 939.856 235.643C939.037 233.157 938.48 230.693 938.168 228.283C930.583 226.385 922.581 222.326 915.279 216.278C915.278 216.277 915.278 216.277 915.277 216.276C906.479 208.956 900.334 200.112 897.512 191.608C895.14 184.46 895.136 177.467 898.057 171.968C888.96 157.806 888.619 140.176 898.71 128.034C906.061 119.188 917.302 115.277 928.887 116.23C933.099 113.924 938.416 112.89 944.261 113.073C953.903 113.375 965.099 116.909 975.703 123.573Z" fill="white"/>
</g>
<g clip-path="url(#clip18_319_33)">
<path d="M1543.42 152.331C1555.52 155.572 1565.72 161.375 1572.5 168.239C1575.29 171.063 1577.49 174.091 1579 177.2C1587.77 171.127 1600.01 169.066 1612.33 171.96C1613 172.117 1613.67 172.289 1614.34 172.476C1616.34 173.036 1618.35 173.728 1620.34 174.556L1619.35 176.918C1602.51 169.895 1584.67 173.264 1575.39 183.823C1574.56 183.486 1573.73 183.145 1572.91 182.821C1574.12 181.359 1575.44 179.989 1576.91 178.775C1575.56 175.812 1573.47 172.859 1570.68 170.037C1564.3 163.577 1554.46 157.939 1542.76 154.803C1531.05 151.666 1519.71 151.63 1510.96 154.034C1507.24 155.054 1504.02 156.502 1501.4 158.315C1506.06 157.842 1510.92 158.095 1515.78 159.165C1516.46 159.313 1517.13 159.477 1517.8 159.656C1519.82 160.194 1521.83 160.873 1523.83 161.697L1523.32 162.917L1523.83 161.7C1530.3 164.394 1535.8 168.337 1540.15 173.019C1538.65 172.72 1537.16 172.444 1535.7 172.199C1532.07 168.912 1527.77 166.111 1522.85 164.062C1522.85 164.061 1522.85 164.061 1522.84 164.061C1520.96 163.28 1519.05 162.637 1517.15 162.127C1516.51 161.957 1515.88 161.802 1515.24 161.662C1497.43 157.725 1479.78 165.251 1473.53 180.274C1466.39 197.442 1476.7 218.227 1496.87 226.635C1499.58 227.756 1502.32 228.561 1505.06 229.13C1506.13 230.175 1507.24 231.22 1508.38 232.264C1504.22 231.757 1500.01 230.704 1495.9 229.001C1495.9 229 1495.89 229 1495.89 229C1492.22 227.468 1488.84 225.539 1485.81 223.299C1485.31 228.232 1487.1 233.653 1490.85 238.906C1495.71 245.724 1503.82 252.128 1513.99 256.364C1524.14 260.563 1534.38 261.795 1542.64 260.434C1544.22 260.173 1545.7 259.791 1547.11 259.349C1548.12 259.896 1549.13 260.439 1550.15 260.976C1547.96 261.861 1545.59 262.542 1543.05 262.96C1542.42 263.064 1541.78 263.15 1541.13 263.225C1542 264.992 1543.05 266.757 1544.29 268.504C1550 276.542 1559.51 284.059 1571.43 289.009C1571.43 289.009 1571.43 289.01 1571.43 289.01C1583.34 293.988 1595.37 295.422 1605.1 293.788C1612.57 292.533 1618.61 289.502 1622.36 284.958C1621.98 284.592 1621.62 284.205 1621.26 283.823C1622.89 283.962 1624.5 284.076 1626.06 284.138C1625.96 284.299 1625.87 284.467 1625.77 284.625C1628.22 286.686 1631.02 288.426 1634.15 289.73C1650.38 296.452 1668.96 288.939 1675.63 272.899C1678.75 265.389 1678.66 257.373 1676.06 250.258C1673.23 253.02 1669.6 255.184 1665.45 256.662C1664.57 256.977 1663.65 257.248 1662.72 257.501C1662.54 256.686 1662.33 255.861 1662.07 255.025C1662.93 254.791 1663.78 254.541 1664.59 254.252C1672.1 251.576 1677.46 246.674 1679.2 240.199C1680.93 233.724 1678.74 226.8 1673.57 220.726C1668.41 214.653 1660.27 209.524 1650.44 206.89C1640.64 204.263 1631.03 204.638 1623.51 207.312C1622.57 207.647 1621.66 208.017 1620.79 208.42C1620.01 207.872 1619.21 207.33 1618.41 206.786C1619.76 206.082 1621.16 205.433 1622.65 204.901C1628.96 202.66 1636.47 201.949 1644.34 203.043C1641.25 192.346 1632.28 182.301 1619.35 176.918L1620.34 174.556C1634.34 180.387 1644.15 191.564 1647.15 203.51C1648.46 203.762 1649.78 204.064 1651.1 204.418C1661.4 207.176 1669.96 212.529 1675.52 219.067C1681.09 225.606 1683.66 233.423 1681.67 240.861C1680.94 243.573 1679.66 246.022 1677.94 248.182C1681.22 256.173 1681.54 265.329 1677.99 273.881C1670.78 291.218 1650.66 299.341 1633.17 292.096C1633.17 292.096 1633.17 292.095 1633.17 292.094C1629.85 290.711 1626.86 288.873 1624.25 286.69C1620.02 291.74 1613.37 294.993 1605.53 296.312C1595.22 298.044 1582.75 296.518 1570.44 291.371C1558.13 286.255 1548.25 278.502 1542.2 269.988C1540.69 267.854 1539.43 265.663 1538.42 263.452C1530.61 263.875 1521.77 262.356 1513.01 258.729C1513.01 258.729 1513.01 258.728 1513.01 258.728C1502.44 254.327 1493.96 247.688 1488.76 240.394C1484.39 234.263 1482.32 227.582 1483.49 221.466C1470.62 210.615 1465.1 193.869 1471.16 179.292C1475.58 168.672 1485.17 161.621 1496.52 159.116C1499.86 155.671 1504.64 153.116 1510.28 151.567C1519.58 149.012 1531.32 149.089 1543.42 152.331Z" fill="white"/>
</g>
<g clip-path="url(#clip19_319_33)">
<path d="M1889.02 199.288C1897.88 208.144 1903.82 218.272 1906.26 227.606C1907.26 231.446 1907.65 235.17 1907.4 238.616C1918.03 237.741 1929.66 242.075 1938.89 250.741C1939.39 251.212 1939.88 251.696 1940.37 252.193C1941.83 253.682 1943.22 255.284 1944.52 256.995L1942.49 258.548C1931.42 244.044 1914.28 238.043 1900.97 242.549C1900.42 241.842 1899.87 241.132 1899.32 240.438C1901.1 239.778 1902.93 239.251 1904.81 238.936C1905.12 235.692 1904.78 232.09 1903.78 228.253C1901.48 219.467 1895.78 209.666 1887.21 201.097C1878.64 192.528 1868.84 186.828 1860.06 184.532C1856.33 183.558 1852.82 183.2 1849.64 183.463C1853.92 185.384 1858 188.032 1861.67 191.388C1862.18 191.853 1862.68 192.332 1863.18 192.824C1864.66 194.299 1866.06 195.893 1867.37 197.603L1866.33 198.407L1867.37 197.607C1871.63 203.174 1874.42 209.34 1875.85 215.57C1874.7 214.561 1873.55 213.579 1872.4 212.634C1870.9 207.973 1868.58 203.395 1865.34 199.162C1865.34 199.161 1865.34 199.16 1865.34 199.159C1864.1 197.54 1862.77 196.031 1861.37 194.636C1860.91 194.171 1860.44 193.719 1859.95 193.279C1846.5 180.966 1827.45 178.655 1814.52 188.541C1799.76 199.84 1798.29 222.995 1811.56 240.366C1813.35 242.69 1815.32 244.758 1817.4 246.618C1817.81 248.061 1818.25 249.518 1818.71 250.993C1815.36 248.473 1812.25 245.458 1809.53 241.925C1809.53 241.924 1809.53 241.923 1809.53 241.922C1807.11 238.758 1805.16 235.4 1803.65 231.946C1800.75 235.968 1799.59 241.554 1800.21 247.978C1801.01 256.315 1804.84 265.917 1811.52 274.669C1818.21 283.379 1826.47 289.569 1834.3 292.517C1835.8 293.082 1837.27 293.49 1838.71 293.815C1839.31 294.791 1839.92 295.768 1840.53 296.745C1838.19 296.414 1835.8 295.819 1833.39 294.913C1832.8 294.688 1832.2 294.441 1831.6 294.182C1831.47 296.146 1831.49 298.201 1831.69 300.334C1832.62 310.15 1837.1 321.414 1844.94 331.659C1844.94 331.66 1844.94 331.661 1844.94 331.661C1852.77 341.925 1862.47 349.186 1871.71 352.635C1878.81 355.283 1885.56 355.678 1891.07 353.616C1890.93 353.109 1890.82 352.597 1890.69 352.086C1892.03 353.02 1893.37 353.922 1894.69 354.755C1894.52 354.845 1894.36 354.947 1894.19 355.033C1895.29 358.045 1896.84 360.952 1898.9 363.644C1909.59 377.581 1929.44 380.363 1943.23 369.806C1949.69 364.863 1953.63 357.879 1954.93 350.417C1951.1 351.395 1946.87 351.452 1942.54 350.657C1941.62 350.488 1940.69 350.264 1939.76 350.02C1940.01 349.224 1940.24 348.402 1940.43 347.551C1941.29 347.777 1942.15 347.985 1943 348.14C1950.85 349.579 1957.94 348.014 1962.68 343.274C1967.42 338.534 1968.98 331.442 1967.54 323.598C1966.1 315.754 1961.63 307.247 1954.43 300.049C1947.25 292.873 1938.75 288.395 1930.9 286.95C1929.91 286.769 1928.94 286.636 1927.99 286.549C1927.58 285.684 1927.16 284.814 1926.74 283.944C1928.26 284.008 1929.8 284.146 1931.36 284.433C1937.94 285.644 1944.8 288.786 1951.07 293.665C1953.74 282.856 1950.99 269.671 1942.49 258.548L1944.52 256.995C1953.73 269.044 1956.64 283.631 1953.27 295.476C1954.28 296.351 1955.27 297.272 1956.24 298.24C1963.77 305.773 1968.51 314.692 1970.06 323.136C1971.61 331.58 1969.93 339.638 1964.49 345.084C1962.5 347.068 1960.17 348.55 1957.6 349.56C1956.44 358.118 1952.14 366.209 1944.79 371.838C1929.88 383.249 1908.4 380.224 1896.87 365.203C1896.87 365.202 1896.87 365.201 1896.87 365.2C1894.69 362.344 1893.02 359.26 1891.84 356.06C1885.66 358.322 1878.28 357.815 1870.82 355.033C1861.03 351.379 1850.99 343.824 1842.91 333.212C1834.8 322.624 1830.12 310.972 1829.14 300.575C1828.9 297.969 1828.9 295.443 1829.14 293.024C1822.16 289.486 1815.26 283.749 1809.49 276.228C1809.49 276.227 1809.49 276.226 1809.49 276.225C1802.54 267.132 1798.52 257.143 1797.66 248.224C1796.93 240.727 1798.49 233.908 1802.56 229.197C1796.84 213.366 1800.43 196.102 1812.97 186.509C1822.1 179.52 1833.93 178.207 1845.01 181.714C1849.63 180.403 1855.05 180.578 1860.71 182.056C1870.04 184.495 1880.17 190.432 1889.02 199.288Z" fill="white"/>
</g>
<g clip-path="url(#clip20_319_33)">
<path d="M575.768 255.364C584.624 246.509 594.753 240.571 604.087 238.132C607.927 237.128 611.651 236.735 615.097 236.985C614.221 226.355 618.556 214.724 627.222 205.502C627.693 205.001 628.177 204.507 628.673 204.02C630.163 202.56 631.765 201.169 633.476 199.863L635.028 201.897C620.525 212.971 614.524 230.105 619.03 243.419C618.323 243.969 617.613 244.517 616.919 245.07C616.259 243.289 615.731 241.462 615.417 239.579C612.173 239.271 608.57 239.605 604.734 240.608C595.948 242.904 586.147 248.605 577.578 257.174C569.009 265.743 563.308 275.543 561.013 284.329C560.039 288.056 559.681 291.571 559.943 294.743C561.864 290.47 564.513 286.387 567.868 282.715C568.334 282.206 568.813 281.704 569.304 281.211C570.78 279.731 572.374 278.327 574.084 277.014L574.888 278.062L574.088 277.013C579.655 272.759 585.821 269.965 592.05 268.539C591.041 269.689 590.059 270.838 589.115 271.983C584.453 273.483 579.876 275.81 575.643 279.044C575.642 279.045 575.641 279.046 575.64 279.047C574.02 280.291 572.512 281.618 571.117 283.014C570.652 283.48 570.2 283.953 569.76 284.433C557.447 297.886 555.136 316.94 565.022 329.863C576.32 344.631 599.475 346.095 616.846 332.824C619.171 331.039 621.239 329.068 623.099 326.984C624.541 326.576 625.998 326.142 627.474 325.673C624.954 329.026 621.939 332.141 618.406 334.854C618.405 334.855 618.404 334.856 618.403 334.857C615.239 337.274 611.88 339.233 608.427 340.736C612.448 343.636 618.035 344.8 624.459 344.181C632.795 343.378 642.398 339.552 651.15 332.866C659.86 326.178 666.049 317.921 668.998 310.092C669.563 308.592 669.971 307.122 670.296 305.674C671.272 305.078 672.249 304.471 673.225 303.855C672.895 306.196 672.3 308.588 671.394 310.994C671.168 311.592 670.921 312.192 670.663 312.791C672.627 312.922 674.682 312.895 676.815 312.694C686.63 311.769 697.895 307.291 708.14 299.447C708.141 299.446 708.141 299.445 708.142 299.445C718.406 291.622 725.666 281.916 729.115 272.674C731.764 265.577 732.159 258.831 730.097 253.315C729.59 253.459 729.078 253.572 728.567 253.693C729.501 252.354 730.402 251.021 731.236 249.702C731.325 249.867 731.428 250.027 731.513 250.194C734.525 249.1 737.433 247.543 740.125 245.489C754.061 234.794 756.844 214.949 746.287 201.153C741.344 194.696 734.36 190.76 726.898 189.455C727.876 193.284 727.933 197.515 727.138 201.848C726.969 202.77 726.745 203.699 726.5 204.629C725.705 204.377 724.882 204.151 724.032 203.954C724.258 203.093 724.466 202.234 724.621 201.386C726.06 193.542 724.495 186.449 719.755 181.709C715.015 176.969 707.923 175.405 700.079 176.844C692.235 178.283 683.727 182.761 676.53 189.958C669.354 197.134 664.875 205.641 663.431 213.491C663.25 214.474 663.117 215.445 663.03 216.401C662.165 216.803 661.294 217.227 660.425 217.647C660.489 216.126 660.627 214.588 660.914 213.028C662.125 206.449 665.267 199.585 670.146 193.322C659.337 190.651 646.152 193.396 635.028 201.897L633.476 199.863C645.525 190.655 660.111 187.744 671.957 191.119C672.832 190.108 673.753 189.117 674.721 188.149C682.254 180.615 691.172 175.875 699.617 174.326C708.061 172.777 716.119 174.454 721.564 179.899C723.549 181.884 725.031 184.217 726.041 186.788C734.599 187.946 742.69 192.244 748.319 199.598C759.73 214.508 756.705 235.993 741.684 247.521C741.683 247.522 741.682 247.522 741.681 247.523C738.825 249.702 735.741 251.368 732.541 252.544C734.803 258.727 734.296 266.112 731.513 273.569C727.86 283.36 720.304 293.394 709.693 301.481C699.104 309.588 687.453 314.264 677.056 315.243C674.45 315.489 671.923 315.484 669.504 315.252C665.967 322.224 660.229 329.123 652.709 334.897C652.708 334.898 652.707 334.898 652.706 334.898C643.612 341.847 633.623 345.871 624.704 346.731C617.208 347.453 610.389 345.901 605.678 341.83C589.847 347.549 572.582 343.96 562.989 331.42C556 322.285 554.688 310.456 558.194 299.373C556.884 294.754 557.058 289.341 558.537 283.683C560.976 274.349 566.912 264.22 575.768 255.364Z" fill="white"/>
</g>
<g clip-path="url(#clip21_319_33)">
<path d="M109.961 307.042C97.4372 307.042 86.0767 304.079 77.752 299.203C74.3272 297.198 71.4156 294.842 69.1556 292.23C62.2583 300.365 50.9688 305.524 38.3202 305.917C37.6325 305.938 36.941 305.946 36.2459 305.939C34.1606 305.918 32.0442 305.768 29.9108 305.482L30.251 302.946C48.3373 305.371 64.6956 297.499 70.9243 284.899C71.8126 285.01 72.7026 285.124 73.5844 285.224C72.7915 286.95 71.8728 288.615 70.7636 290.169C72.8397 292.68 75.6232 294.991 79.0453 296.995C86.8809 301.584 97.8432 304.483 109.961 304.483C122.08 304.483 133.04 301.584 140.876 296.995C144.201 295.048 146.939 292.816 148.996 290.387C144.616 292.05 139.856 293.065 134.887 293.289C134.198 293.32 133.505 293.336 132.808 293.337C130.719 293.34 128.598 293.205 126.461 292.925L126.634 291.615L126.457 292.923C119.513 291.994 113.178 289.609 107.764 286.213C109.291 286.113 110.797 285.996 112.275 285.854C116.632 288.089 121.514 289.681 126.794 290.387C126.795 290.387 126.797 290.387 126.798 290.387C128.823 290.653 130.828 290.781 132.802 290.78C133.46 290.78 134.114 290.765 134.764 290.736C152.984 289.93 168.091 278.091 170.238 261.963C172.692 243.531 157.354 226.123 135.687 223.223C132.781 222.842 129.925 222.773 127.136 222.932C125.828 222.2 124.49 221.477 123.116 220.765C127.269 220.176 131.603 220.106 136.02 220.686C136.021 220.686 136.022 220.686 136.024 220.686C139.971 221.213 143.73 222.203 147.235 223.583C146.442 218.688 143.315 213.914 138.335 209.81C131.872 204.483 122.377 200.398 111.46 198.938C100.572 197.508 90.3571 198.97 82.7363 202.421C81.2758 203.082 79.948 203.833 78.6943 204.627C77.5825 204.358 76.4631 204.097 75.3372 203.842C77.2259 202.42 79.3383 201.149 81.6801 200.089C82.2624 199.825 82.8608 199.576 83.468 199.335C82.1718 197.853 80.699 196.42 79.0485 195.054C71.454 188.767 60.3224 183.968 47.5313 182.271C47.5303 182.271 47.5294 182.271 47.5285 182.271C34.7395 180.544 22.7426 182.273 13.7683 186.37C6.87721 189.516 1.82829 194.006 -0.614536 199.365C-0.153987 199.621 0.288047 199.903 0.734495 200.179C-0.873077 200.466 -2.45301 200.771 -3.97466 201.114C-3.92131 200.934 -3.88097 200.749 -3.82314 200.57C-6.7261 199.214 -9.8828 198.259 -13.2391 197.807C-30.6567 195.516 -46.6569 207.581 -48.9465 224.8C-50.0173 232.862 -47.8618 240.583 -43.5086 246.782C-41.4922 243.384 -38.5412 240.352 -34.9151 237.85C-34.1437 237.318 -33.3285 236.819 -32.4974 236.334C-32.1136 237.075 -31.6912 237.816 -31.2294 238.557C-31.9982 239.006 -32.7522 239.466 -33.4619 239.956C-40.0259 244.485 -43.9346 250.607 -43.9346 257.311C-43.9346 264.014 -40.0259 270.135 -33.4619 274.664C-26.8978 279.193 -17.7158 282.042 -7.53706 282.042C2.61172 282.042 11.7936 279.194 18.3657 274.664C19.1885 274.097 19.9695 273.505 20.7068 272.89C21.6029 273.217 22.5184 273.533 23.4298 273.852C22.3096 274.881 21.1243 275.871 19.8181 276.771C14.3096 280.567 7.23445 283.199 -0.644594 284.178C5.11024 293.71 16.3742 301.092 30.251 302.946L29.9108 305.482C14.8794 303.473 2.50732 295.217 -3.48285 284.455C-4.81606 284.551 -6.1684 284.601 -7.53721 284.601C-18.1912 284.601 -27.849 281.647 -34.9153 276.771C-41.9816 271.896 -46.4938 265.012 -46.4938 257.311C-46.4938 254.504 -45.892 251.807 -44.7881 249.275C-50.0208 242.404 -52.7028 233.644 -51.4831 224.463C-49.009 205.852 -31.6781 192.799 -12.9046 195.268C-12.9036 195.269 -12.9026 195.269 -12.9015 195.269C-9.34078 195.748 -5.98163 196.75 -2.88826 198.182C-0.115108 192.21 5.46537 187.347 12.7052 184.042C22.2127 179.701 34.65 177.949 47.8718 179.734C61.0912 181.489 72.6366 186.421 80.6812 193.081C82.6972 194.749 84.4803 196.54 86.0268 198.414C93.4583 195.985 102.393 195.164 111.794 196.399C111.795 196.399 111.796 196.4 111.797 196.4C123.141 197.917 133.05 202.135 139.964 207.834C145.775 212.624 149.5 218.543 149.953 224.752C165.191 231.903 174.86 246.649 172.777 262.299C171.259 273.7 163.823 282.993 153.507 288.35C151.168 292.543 147.216 296.247 142.17 299.203C133.845 304.078 122.486 307.042 109.961 307.042Z" fill="white"/>
</g>
</g>
<defs>
<clipPath id="clip0_319_33">
<rect width="2160" height="592" fill="white" transform="matrix(1 0 0 -1 -127 560)"/>
</clipPath>
<clipPath id="clip1_319_33">
<rect width="224.833" height="128" fill="white" transform="matrix(-1 0 0 1 1044.83 -64)"/>
</clipPath>
<clipPath id="clip2_319_33">
<rect width="224.833" height="128" fill="white" transform="matrix(0.937822 -0.347116 -0.347116 -0.937822 1792.79 129.626)"/>
</clipPath>
<clipPath id="clip3_319_33">
<rect width="224.833" height="128" fill="white" transform="matrix(0.846689 0.532089 0.532089 -0.846689 1118 84.3689)"/>
</clipPath>
<clipPath id="clip4_319_33">
<rect width="224.833" height="128" fill="white" transform="matrix(0.939693 -0.34202 -0.34202 -0.939693 -22.748 101.172)"/>
</clipPath>
<clipPath id="clip5_319_33">
<rect width="224.833" height="128" fill="white" transform="matrix(0.965926 0.258819 0.258819 -0.965926 531 99.8088)"/>
</clipPath>
<clipPath id="clip6_319_33">
<rect width="224.833" height="128" fill="white" transform="matrix(0.707107 0.707107 0.707107 -0.707107 227.255 -19.6521)"/>
</clipPath>
<clipPath id="clip7_319_33">
<rect width="224.833" height="128" fill="white" transform="matrix(0.707107 -0.707107 -0.707107 -0.707107 1540.51 153)"/>
</clipPath>
<clipPath id="clip8_319_33">
<rect width="224.833" height="128" fill="white" transform="matrix(-1 0 0 1 1044.83 -64)"/>
</clipPath>
<clipPath id="clip9_319_33">
<rect width="224.833" height="128" fill="white" transform="matrix(0.937822 -0.347116 -0.347116 -0.937822 1792.79 129.626)"/>
</clipPath>
<clipPath id="clip10_319_33">
<rect width="224.833" height="128" fill="white" transform="matrix(0.846689 0.532089 0.532089 -0.846689 1118 84.3689)"/>
</clipPath>
<clipPath id="clip11_319_33">
<rect width="224.833" height="128" fill="white" transform="matrix(0.939693 -0.34202 -0.34202 -0.939693 -22.748 101.172)"/>
</clipPath>
<clipPath id="clip12_319_33">
<rect width="224.833" height="128" fill="white" transform="matrix(0.965926 0.258819 0.258819 -0.965926 531 99.8088)"/>
</clipPath>
<clipPath id="clip13_319_33">
<rect width="224.833" height="128" fill="white" transform="matrix(0.707107 0.707107 0.707107 -0.707107 227.255 -19.6521)"/>
</clipPath>
<clipPath id="clip14_319_33">
<rect width="224.833" height="128" fill="white" transform="matrix(0.707107 -0.707107 -0.707107 -0.707107 1540.51 153)"/>
</clipPath>
<clipPath id="clip15_319_33">
<rect width="224.833" height="128" fill="white" transform="matrix(1 0 0 -1 1185.81 358)"/>
</clipPath>
<clipPath id="clip16_319_33">
<rect width="224.833" height="128" fill="white" transform="matrix(-0.937822 0.347116 0.347116 0.937822 437.854 164.374)"/>
</clipPath>
<clipPath id="clip17_319_33">
<rect width="224.833" height="128" fill="white" transform="matrix(-0.846689 -0.532089 -0.532089 0.846689 1112.64 209.631)"/>
</clipPath>
<clipPath id="clip18_319_33">
<rect width="224.833" height="128" fill="white" transform="matrix(-0.965926 -0.258819 -0.258819 0.965926 1699.64 194.191)"/>
</clipPath>
<clipPath id="clip19_319_33">
<rect width="224.833" height="128" fill="white" transform="matrix(-0.707107 -0.707107 -0.707107 0.707107 2003.39 313.652)"/>
</clipPath>
<clipPath id="clip20_319_33">
<rect width="224.833" height="128" fill="white" transform="matrix(-0.707107 0.707107 0.707107 0.707107 690.133 141)"/>
</clipPath>
<clipPath id="clip21_319_33">
<rect width="224.833" height="128" fill="white" transform="matrix(1 0 0 -1 -51.7744 307.042)"/>
</clipPath>
</defs>
</svg>
