<svg width="1977" height="1977" viewBox="0 0 1977 1977" fill="none" xmlns="http://www.w3.org/2000/svg">
<path d="M1924.73 1040.1C1883.71 1081.11 1792.97 1101.62 1652.49 1101.62H1313.08L886.693 1730.24L883.158 1735.19C876.558 1741.79 869.016 1745.09 860.53 1745.09H770.021C761.535 1745.09 753.993 1741.79 747.393 1735.19C737.494 1725.29 734.901 1714.21 739.615 1701.95L952.454 1101.62H605.972C525.833 1245.87 482.464 1321.29 475.864 1327.89C469.265 1334.49 461.722 1337.79 453.237 1337.79H362.727C354.242 1337.79 346.699 1334.49 340.1 1327.89C331.614 1319.41 328.786 1309.04 331.614 1296.78L420.003 989.19L331.614 681.599C327.843 669.342 330.436 658.736 339.393 649.779C345.992 643.179 353.535 639.88 362.02 639.88L453.237 639.172C461.722 639.172 469.265 642.472 475.864 649.072C482.464 655.672 525.833 731.096 605.972 875.346H952.454L739.615 275.012C734.901 262.756 737.494 251.678 747.393 241.778C753.993 235.179 761.535 231.879 770.021 231.879H860.53C869.016 231.879 876.558 235.179 883.158 241.778C885.043 243.664 886.222 245.314 886.693 246.728L1313.08 875.346H1652.49C1792.97 875.346 1883.71 895.852 1924.73 936.864C1939.81 951.949 1947.35 969.156 1947.35 988.483C1947.35 1007.81 1939.81 1025.02 1924.73 1040.1Z" fill="black" fill-opacity="0.3"/>
</svg>
